<svg xmlns="http://www.w3.org/2000/svg" fill="none" viewBox="33.59 41.85 168.33 247.29">
<path fill-rule="evenodd" clip-rule="evenodd" d="M116.796 128.018C121.428 124.786 136.467 127.221 142.666 128.018C145.924 128.437 147.847 132.664 149.557 139.092C158.484 136.903 170.198 134.829 178.613 140.763C181.212 143.027 181.698 146.885 178.7 149.037C177.723 149.696 175.841 150.256 175.543 150.827C174.337 153.897 172.992 157.954 173.206 161.219C177.038 195.5 184.72 229.875 190.124 263.937L190.267 265.226C190.901 271.021 191.413 277.859 187.478 282.473C184.832 284.716 181.068 284.407 177.834 285.054C147.351 289.139 116.572 285.234 85.9646 286.48C80.7491 286.774 75.5057 287.154 70.2776 287.192L70.2754 287.132C70.839 287.128 71.4028 287.12 71.9671 287.108C71.3891 270.078 70.1964 253.072 69.8114 236.035C69.69 230.665 69.6545 225.293 69.7605 219.922C69.7821 218.834 68.0919 218.834 68.0704 219.922C68.0351 221.705 68.0195 223.486 68.0121 225.268C66.7462 224.275 65.3385 223.487 63.9876 222.601C63.0754 222.003 62.2278 223.466 63.1345 224.061C64.7368 225.112 66.4421 225.995 67.8312 227.338C67.8874 227.392 67.9462 227.434 68.0059 227.469C68.037 244.586 69.2085 261.691 69.9524 278.786C70.0624 281.316 70.1623 283.846 70.2501 286.376L70.2774 287.192C64.6181 287.235 58.9767 286.877 53.4083 285.579C52.4675 286.891 50.2762 287.151 49.1622 285.458C48.6049 284.819 48.4927 283.732 47.6301 283.488C47.3981 283.307 47.7562 283.178 47.9202 283.264C40.3021 261.426 47.2541 220.73 53.3962 198.358C56.0834 186.823 62.5422 176.144 63.2147 164.203C63.2855 158.575 59.2511 151.795 64.3661 147.273C63.6117 143.14 67.518 139.695 71.4619 139.423C76.3162 121.888 97.8027 142.338 109.437 142.545C111.032 139.891 114.58 129.564 116.796 128.018ZM182.202 242.809C182.201 241.721 180.511 241.719 180.512 242.809C180.523 254.38 181.517 268.232 182.946 279.707C183.078 280.773 184.77 280.786 184.636 279.707C183.207 268.232 182.214 254.38 182.202 242.809ZM102.928 257.661C103.888 257.147 103.035 255.687 102.075 256.2C95.0316 259.974 88.4491 264.484 82.1182 269.348C81.2675 270.002 82.1083 271.471 82.9713 270.808C89.3022 265.944 95.8844 261.434 102.928 257.661ZM164.053 255.501C163.387 254.701 161.96 255.532 162.617 256.384C164.147 258.366 166.047 259.927 168.275 261.069C169.229 261.559 170.077 260.141 169.161 259.628L169.128 259.609C167.227 258.634 165.513 257.343 164.181 255.663L164.053 255.501ZM79.4658 206.026C79.7018 204.965 78.0727 204.513 77.8361 205.576C77.3386 207.811 77.7002 210.188 78.2175 212.402L78.2523 212.55L78.3229 212.843C78.4158 213.224 78.7716 213.436 79.1377 213.464C85.3549 213.924 91.5039 211.81 97.4643 210.251L97.9055 210.137L98.346 210.025C99.4 209.759 98.9536 208.128 97.8966 208.394L97.426 208.514C91.6956 209.991 85.794 212.074 79.8144 211.812L79.7516 211.536C79.3595 209.785 79.0822 207.912 79.4365 206.163L79.4658 206.026ZM174.901 201.905C174.909 200.817 173.219 200.816 173.211 201.905L173.209 202.119C173.189 203.834 173.048 206.271 171.367 207.18C169.872 207.989 167.888 207.382 166.304 206.763L165.983 206.636L165.519 206.447C164.513 206.035 164.075 207.67 165.07 208.077L165.318 208.178C167.471 209.038 170.237 209.858 172.362 208.557C174.439 207.286 174.839 204.592 174.894 202.329L174.898 202.155L174.901 201.905Z" fill="#D08B5B"/>
<path fill-rule="evenodd" clip-rule="evenodd" d="M170.207 136.698L170.381 136.73L175.163 137.62L170.313 137.986C170.088 138.003 169.863 138.024 169.636 138.049C169.17 138.1 168.712 138.164 168.263 138.242L167.972 138.294L168.097 138.288C169.868 138.205 171.642 138.35 173.39 138.717C175.114 139.079 176.644 139.571 178.013 140.241L178.177 140.322L178.388 140.43L178.49 140.479L178.57 140.516C178.945 140.689 179.098 140.779 179.256 140.994C179.571 141.42 179.437 141.901 179.031 142.267C178.727 142.541 178.336 142.676 177.821 142.754C177.745 142.766 177.668 142.776 177.583 142.785L177.128 142.83C176.28 142.918 175.721 143.378 175.636 144.09C175.553 144.788 175.962 145.495 176.549 145.669L176.592 145.681L176.647 145.694C176.723 145.711 176.79 145.729 176.855 145.753L176.903 145.772L177.009 145.815L177.014 145.816L177.018 145.818L177.119 145.86L177.145 145.911L177.161 145.923C177.221 145.972 177.246 146.006 177.285 146.081L177.319 146.148L177.347 146.244L177.355 146.276L177.36 146.301L177.361 146.309L177.388 146.486L177.396 146.546L177.398 146.585L177.399 149.296L176.704 147.905L176.68 147.925C176.343 148.196 175.911 148.419 175.362 148.636L175.251 148.679L174.961 148.786L174.389 148.99L174.258 149.039L174.14 149.084C174.048 149.121 173.968 149.155 173.896 149.188C173.787 149.238 173.691 149.295 173.607 149.358L173.558 149.396L173.283 149.624L172.605 149.387C172.525 149.359 172.453 149.333 172.384 149.308L171.726 149.063L171.163 148.856C170.432 148.588 169.775 148.356 169.136 148.14L168.36 147.882L167.794 147.697C167.598 147.634 167.39 147.567 167.161 147.494L163.964 146.484L163.348 146.286C163.003 146.174 162.692 146.072 162.37 145.965L161.772 145.764L161.194 145.565C159.31 144.91 157.509 144.21 154.301 142.913L154.996 143.31L155.513 143.602C156.133 143.951 156.812 144.33 157.571 144.75L161.023 146.658L161.714 147.044L163.261 147.914L164.078 148.37C165.541 149.182 166.579 149.732 167.686 150.272C168.542 150.69 169.421 151.091 170.337 151.482L170.682 151.628L171.212 151.848L171.629 152.03L171.912 152.154L172.098 152.233C173.097 152.651 173.683 152.76 174.334 152.59L174.379 152.577L174.424 152.561L175.692 152.075L175.25 153.359C175.2 153.506 175.15 153.654 175.101 153.803L175.012 154.076L174.939 154.219C174.515 155.063 174.095 155.933 173.673 156.845L173.447 157.336L173.316 157.433C173.269 157.469 173.225 157.521 173.188 157.591C173.02 157.919 172.858 158.246 172.7 158.573L172.535 158.92L172.364 159.288C171.618 160.895 170.94 162.545 170.062 164.846L168.904 167.914L168.731 168.372C167.31 172.123 165.97 175.883 164.713 179.651C162.228 187.084 160.03 194.628 158.125 202.26C154.301 217.591 151.749 233.152 150.498 248.815C150.262 251.767 150.092 254.705 149.988 257.633L149.962 258.393L149.881 259.066C149.818 259.596 149.759 260.111 149.703 260.615L149.67 260.916C149.264 264.644 149.068 267.578 149.089 270.387C149.099 271.78 149.141 273.079 149.221 274.33L149.239 274.617L149.554 279.217L148.01 274.873C147.901 274.566 147.795 274.254 147.676 273.889L147.526 273.425L147.453 273.192C147.388 272.978 147.326 272.756 147.249 272.467L146.976 271.434L146.908 271.186C146.837 270.93 146.778 270.733 146.71 270.523L146.628 270.277L146.568 270.106C146.458 269.799 146.329 269.472 146.125 268.977L145.812 268.215L145.749 268.06V267.936L145.759 267.526C145.781 266.548 145.775 265.518 145.747 264.362L145.72 263.457L145.693 262.681C145.69 262.601 145.686 262.518 145.683 262.433L145.538 258.943L145.258 251.192L145.215 249.883C145.183 248.909 145.158 248.028 145.136 247.169L145.117 246.384L145.111 246.117C144.94 238.427 145.004 230.516 145.288 222.287L145.316 221.49L145.345 220.705C145.821 207.923 146.645 197.043 148.6 175.625L148.925 172.081L149.411 166.836L149.523 165.605C149.749 163.098 149.912 161.143 150.049 159.228L150.109 158.375C150.339 154.991 150.478 151.478 150.546 147.619L150.557 146.925L150.252 147.985L149.988 144.459C149.909 143.392 149.774 142.405 149.575 141.486L149.532 141.29L149.446 140.916L149.379 140.667C149.266 140.247 149.976 138.316 149.976 138.316L150.378 138.22L150.865 138.105C158.617 136.295 164.656 135.701 170.207 136.698ZM93.7919 133.56L94.0256 133.625L94.1734 133.667C95.3592 134.008 96.6184 134.49 98.0709 135.135L98.4868 135.321C98.6725 135.405 99.7455 135.83 100.172 136.011L100.245 136.043C101.82 136.735 102.759 137.462 102.966 138.531L102.979 138.604C103.439 139.045 103.971 139.468 104.577 139.875L104.73 139.976L104.875 140.07C105.527 140.485 106.144 140.85 106.725 141.167L106.882 141.251L106.991 141.309L108.037 141.668L109.329 142.117L109.589 142.205C110.936 142.664 111.731 142.905 112.683 143.139L113.217 143.27C115.242 143.761 117.036 144.144 118.766 144.445C120.526 144.749 122.334 145.015 124.203 145.249L124.834 145.326C125.456 145.399 126.066 145.455 127.017 145.529L128.554 145.648L129.593 145.733L129.04 146.617C127.591 148.933 126.473 151.514 125.222 155.164L125.083 155.574C123.948 158.928 123.15 161.95 121.776 167.749C119.695 176.549 117.982 185.432 116.641 194.364C115.718 200.52 114.969 206.661 114.398 212.783L114.318 213.657L113.055 213.655C112.889 211.775 112.683 209.838 112.434 207.802C111.654 201.459 110.53 195.231 109.062 189.155L108.924 188.585L108.864 188.34L108.988 188.121C109.063 187.989 109.093 187.84 109.072 187.711C108.918 186.753 108.637 185.879 108.099 184.56L107.551 183.235L107.428 182.931L107.419 182.899C106.838 180.86 106.219 178.844 105.561 176.852L105.341 176.189L105.331 176.159C104.376 172.744 103.438 169.925 102.336 167.284C101.472 165.221 100.491 163.198 99.3969 161.223L99.1905 160.853L99.1717 160.817C97.7862 157.935 96.3122 155.211 94.7471 152.658L94.496 152.251L94.473 152.184C94.4194 152.03 94.3388 151.893 94.2322 151.777L94.1909 151.734L94.1384 151.682L94.0235 151.502L93.1074 151.273C90.5292 150.628 87.846 150.571 84.8509 151.018L84.6508 151.049L84.4497 151.081C82.2507 151.438 80.3615 151.925 76.9298 152.969L73.5538 154.003L73.0736 154.146L72.6197 154.28C70.9743 154.759 69.5332 155.121 68.134 155.393L67.9434 155.429L67.4257 155.527L67.1696 155.573C65.628 155.848 64.5485 155.922 63.5279 155.727L63.4353 155.708L63.3218 155.683L63.2204 155.658C62.029 155.34 61.5887 154.477 62.1372 153.273C62.5907 152.277 63.5747 151.571 65.0208 150.951L65.2306 150.864L65.2826 150.842L65.3377 150.83C65.6819 150.756 66.0116 150.625 66.3254 150.434C66.9581 150.05 67.2227 149.257 66.936 148.601C66.6404 147.929 65.8315 147.487 65.2685 147.714L64.8435 147.883L64.3785 148.066L64.0919 147.656C64.076 147.634 64.0608 147.61 64.0461 147.584L64.0243 147.543L64.0104 147.515L63.9753 147.484L63.9404 147.449C63.8531 147.354 63.8062 147.251 63.7828 147.145C63.7739 147.106 63.7692 147.069 63.7671 147.033L63.7658 146.997C63.7645 146.922 63.77 146.861 63.7933 146.651C63.8956 145.739 64.4925 145.002 65.5262 144.155L65.693 144.02L65.7429 143.981C67.7209 142.413 70.2295 141.606 72.3611 142.101C72.4654 142.124 72.5677 142.151 72.6721 142.182L72.7773 142.214L72.9017 142.255C73.5572 142.482 74.0693 142.203 74.3079 141.579C74.5482 140.951 74.3868 140.257 73.8781 139.883L73.8323 139.85L73.6769 139.747L73.4957 139.622L73.295 139.481L73.2029 139.414L73.0701 139.315C72.0492 138.543 71.4885 137.822 71.6524 136.969L71.6639 136.915L71.6784 136.851L71.7057 136.791L71.7918 136.607L71.8811 136.424L71.9061 136.374L71.9396 136.328C72.2909 135.855 72.8794 135.496 73.7224 135.147L73.8208 135.107C74.1729 134.965 75.1564 134.62 75.3035 134.563L75.3145 134.559C78.2272 133.377 81.3914 132.695 84.5738 132.556C87.6977 132.42 90.8277 132.758 93.7919 133.56Z" fill="white"/>
<path d="M148.345 166.131L148.307 166.419L148.271 166.706C147.236 174.949 146.363 185.322 145.602 193.592C144.086 210.079 143.156 226.634 143.285 243.196C143.318 247.478 143.473 251.748 143.671 256.024L143.714 256.94C143.936 261.6 144.276 266.525 145.573 271.02C145.717 271.516 146.036 271.802 146.403 271.906C146.418 272.43 146.448 272.955 146.484 273.476L146.511 273.865C146.661 275.968 147.09 280.336 148.007 282.243C148.9 284.103 150.39 285.578 152.289 286.39C152.821 286.617 153.363 286.779 153.912 286.893C142.379 287.129 127.231 286.756 115.677 286.478C116.878 286.289 117.558 285.339 117.717 284.128C118.034 281.697 117.438 279.185 116.09 277.141C115.951 276.929 115.786 276.741 115.602 276.581L115.635 275.236C115.657 274.227 115.668 273.218 115.611 272.21C115.488 269.987 115.305 267.763 115.144 265.542C114.819 261.093 114.567 256.636 114.468 252.176C114.265 243.257 114.413 234.33 114.918 225.423C115.93 207.63 118.286 187.837 122.141 170.432C122.422 169.164 122.705 167.896 122.999 166.63C125.997 168.188 131.333 168.747 134.61 168.769C138.717 168.794 144.635 167.849 148.345 166.131Z" fill="#E86BBB"/>
<path fill-rule="evenodd" clip-rule="evenodd" d="M182.916 279.768C181.488 268.293 180.494 254.441 180.483 242.87C180.482 241.78 182.172 241.782 182.173 242.87C182.184 254.441 183.178 268.293 184.607 279.768C184.741 280.847 183.049 280.834 182.916 279.768ZM172.331 208.618C170.124 209.969 167.224 209.032 165.039 208.138C164.045 207.73 164.483 206.095 165.489 206.507C167.152 207.188 169.582 208.19 171.337 207.241C173.089 206.293 173.168 203.686 173.181 201.966C173.189 200.877 174.879 200.878 174.871 201.966C174.853 204.307 174.54 207.267 172.331 208.618ZM168.245 261.13C166.018 259.988 164.117 258.426 162.588 256.444C161.923 255.583 163.392 254.742 164.047 255.591C165.393 257.335 167.147 258.67 169.098 259.67C170.068 260.167 169.211 261.626 168.245 261.13ZM157.539 202.121C153.717 217.442 151.152 233.037 149.895 248.778C149.64 251.974 149.46 255.165 149.359 258.359C149.257 259.191 149.16 260.026 149.069 260.861C148.725 264.019 148.461 267.227 148.484 270.406C148.495 271.832 148.539 273.253 148.636 274.675C148.467 274.199 148.311 273.722 148.159 273.246C147.848 272.272 147.643 271.262 147.326 270.294C147.064 269.493 146.726 268.726 146.412 267.95V267.948C146.507 264.771 146.291 261.565 146.181 258.403C146.04 254.307 145.864 250.215 145.774 246.117C145.592 237.921 145.683 229.719 145.978 221.527C146.572 205.02 148.072 188.592 149.585 172.153C150.005 167.582 150.457 163.012 150.77 158.432C151.085 153.804 151.212 149.167 151.247 144.526C151.25 144.192 150.743 144.103 150.65 144.426C150.567 143.325 150.421 142.226 150.178 141.163C153.823 143.488 157.666 145.498 161.433 147.611C163.416 148.725 165.392 149.858 167.437 150.855C168.561 151.405 169.695 151.91 170.853 152.388C172.053 152.882 173.2 153.563 174.521 153.218C174.635 153.189 174.743 153.146 174.846 153.092C174.696 153.377 174.546 153.66 174.402 153.948C173.904 154.939 173.428 155.934 172.968 156.938C172.845 157.029 172.738 157.154 172.653 157.316C172.429 157.754 172.212 158.196 172 158.643C171.958 158.604 171.916 158.563 171.874 158.523C171.696 158.356 171.451 158.608 171.607 158.79C171.679 158.872 171.749 158.952 171.819 159.035C170.441 162 169.321 165.117 168.168 168.161C166.75 171.902 165.407 175.67 164.141 179.464C161.646 186.927 159.445 194.487 157.539 202.121ZM102.899 257.722C95.8551 261.495 89.2729 266.005 82.942 270.869C82.079 271.532 81.2381 270.063 82.0889 269.409C88.4198 264.545 95.0022 260.035 102.046 256.261C103.006 255.748 103.858 257.208 102.899 257.722ZM79.1076 213.524C78.7415 213.497 78.3857 213.285 78.2928 212.904C77.7221 210.567 77.2753 208.021 77.806 205.637C78.0426 204.574 79.6717 205.026 79.4357 206.086C79.0172 207.966 79.3497 209.998 79.7843 211.872C85.9278 212.142 91.9888 209.936 97.8665 208.455C98.9235 208.189 99.3699 209.82 98.3159 210.086C92.0809 211.656 85.6318 214.008 79.1076 213.524ZM201.411 275.865C201.417 275.85 201.423 275.833 201.428 275.818C201.789 274.724 201.797 273.451 201.838 272.304C201.907 270.262 201.833 268.216 201.65 266.181C201.261 261.897 200.424 257.682 199.425 253.504C197.445 245.228 194.648 237.175 193.129 228.787C190.148 212.32 190.856 195.176 185.006 179.293C182.574 172.69 179.101 166.343 174.381 161.097C174.726 160.049 175.061 158.999 175.389 157.944C175.961 156.11 176.547 154.216 176.9 152.326C176.908 152.276 176.919 152.223 176.925 152.17C178.934 151.303 180.761 149.67 181.074 147.497C181.209 146.559 181.053 145.519 180.647 144.612C181.476 143.847 182.008 142.854 181.881 141.522C181.645 139.016 178.719 138.371 176.682 137.881C174.366 137.325 171.964 137.171 169.596 137.433C168.4 137.564 167.217 137.783 166.061 138.113C165.058 138.398 163.966 138.692 163.161 139.381C163.066 139.462 163.144 139.618 163.258 139.618C164.887 139.612 166.509 139.013 168.155 138.935C169.879 138.855 171.599 138.997 173.289 139.352C174.941 139.698 176.589 140.205 178.091 140.99C178.514 141.212 179.133 141.362 178.636 141.81C178.273 142.137 177.559 142.165 177.092 142.213C176.059 142.321 175.167 142.926 175.036 144.029C174.92 145.003 175.501 146.106 176.536 146.326C176.593 146.339 176.646 146.354 176.692 146.373C176.72 146.426 176.762 146.47 176.758 146.398C176.758 146.398 176.76 146.396 176.76 146.398C176.785 146.552 176.794 146.613 176.794 146.624C176.788 146.612 176.777 146.559 176.769 146.516C176.775 146.554 176.788 146.616 176.804 146.707C176.781 146.607 176.8 146.851 176.781 146.888C176.232 147.903 174.607 148.188 173.661 148.626C173.477 148.71 173.319 148.81 173.183 148.921C172.959 148.843 172.731 148.765 172.501 148.679C171.366 148.254 170.234 147.842 169.085 147.459C166.866 146.717 164.621 146.056 162.402 145.312C158.202 143.904 154.142 142.127 150.02 140.516C149.889 140.03 149.737 139.555 149.557 139.092C149.521 138.995 149.348 138.963 149.329 139.092C149.266 139.502 149.215 139.914 149.173 140.328C149.156 140.366 149.152 140.408 149.16 140.449C148.921 142.858 148.985 145.324 148.862 147.732C148.71 150.733 148.285 153.713 148.165 156.716V156.771C147.721 159.335 147.32 161.907 146.957 164.488C146.549 164.361 146.082 164.386 145.604 164.642C142.228 166.445 138.434 167.449 134.616 167.673C132.694 167.784 130.79 167.721 128.878 167.499C127.621 167.356 126.383 167.093 125.143 166.844C125.796 164.107 126.497 161.383 127.29 158.686C127.942 156.469 128.669 154.262 129.567 152.13C130.473 149.976 131.602 147.92 132.652 145.832C133.135 144.866 132.565 143.388 131.308 143.49C130.936 143.519 130.564 143.543 130.19 143.56C126.552 143.733 122.769 143.327 119.177 142.966C115.089 142.551 110.946 142.122 106.894 141.448C106.594 141.4 106.471 141.808 106.767 141.907C108.69 142.554 110.589 143.285 112.56 143.769C114.588 144.27 116.629 144.726 118.687 145.083C120.658 145.424 122.638 145.709 124.623 145.95C125.919 146.109 127.228 146.189 128.532 146.294C126.776 149.101 125.566 152.267 124.511 155.384C123.157 159.388 122.162 163.507 121.188 167.618C119.105 176.429 117.388 185.329 116.044 194.284C115.081 200.705 114.301 207.151 113.716 213.614C113.542 211.65 113.331 209.693 113.092 207.738C112.294 201.247 111.128 194.799 109.569 188.448C109.708 188.203 109.773 187.909 109.727 187.624C109.446 185.878 108.707 184.359 108.058 182.74C107.414 180.478 106.719 178.232 105.971 176.002C105.121 172.965 104.169 169.974 102.95 167.053C102.018 164.828 100.955 162.659 99.7721 160.556C98.3587 157.617 96.8059 154.74 95.1009 151.99C95.0122 151.735 94.8685 151.496 94.6636 151.295C94.353 150.805 94.0383 150.321 93.7171 149.841C93.508 149.528 92.908 149.718 93.0664 150.116C93.1404 150.302 93.2143 150.488 93.2904 150.672C86.346 148.934 79.5368 151.591 72.9221 153.552C71.253 154.049 69.5671 154.497 67.8559 154.82C66.5101 155.074 64.9425 155.383 63.6009 155.103C62.703 154.918 62.3059 154.51 62.7432 153.55C63.1953 152.557 64.4291 151.904 65.5002 151.464C65.9038 151.377 66.3009 151.223 66.6833 150.991C67.5749 150.45 67.9657 149.321 67.5453 148.359C67.1629 147.491 66.0474 146.743 65.0608 147.14C64.9192 147.197 64.7798 147.252 64.6404 147.307C64.6256 147.286 64.6087 147.256 64.5939 147.214C64.4523 146.827 64.3911 147.29 64.4523 146.736C64.5538 145.832 65.5108 145.009 66.1657 144.492C67.7946 143.2 70.1481 142.245 72.2502 142.733C72.4087 142.769 72.5671 142.814 72.7235 142.869C74.889 143.619 75.9432 140.499 74.2129 139.337C74.1073 139.267 73.9742 139.178 73.8284 139.075C73.108 138.574 72.0537 137.731 72.3411 136.97C72.696 136.025 74.7897 135.482 75.5819 135.161C78.4467 133.998 81.5418 133.339 84.6305 133.203C87.7383 133.068 90.8861 133.411 93.884 134.249C95.3545 134.66 96.865 135.283 98.2552 135.913C99.5037 136.477 102.221 137.223 102.394 138.804C102.432 139.153 102.928 139.271 103.036 138.891C103.888 135.856 100.583 133.897 98.403 132.643C96.9728 131.819 95.3502 131.306 93.7805 130.8C92.2763 130.314 90.7404 129.957 89.1728 129.741C85.8073 129.281 82.4016 129.34 79.0636 129.987C76.0235 130.577 72.6411 131.582 70.184 133.54C68.6756 134.74 67.9932 136.651 68.5995 138.515C68.6207 138.576 68.6418 138.639 68.6629 138.701C65.9481 139.187 63.3791 140.742 61.6615 142.911C60.2502 144.692 59.5108 147.172 60.7742 149.245C60.7214 149.283 60.6685 149.323 60.6178 149.365C59.4136 150.329 58.5178 151.729 58.2516 153.258C57.7298 156.277 59.553 158.388 62.103 159.195C61.4714 159.813 60.865 160.468 60.2714 161.123C58.9425 162.592 57.6728 164.191 56.553 165.823C54.284 169.129 52.3446 172.728 50.6481 176.355C47.1601 183.803 44.9608 191.819 43.7946 199.948C43.2073 204.044 42.8143 208.161 42.6643 212.295C42.4911 217.008 42.6664 221.723 42.5756 226.439C42.4869 230.97 41.9861 235.391 40.9742 239.809C40.0045 244.033 38.7115 248.174 37.5411 252.344C36.2207 257.04 34.7671 261.715 34.07 266.557C33.7171 269.021 33.4636 271.492 33.6601 273.984C33.8587 276.522 34.7798 278.693 35.6291 281.054C35.8446 281.656 36.5016 281.899 37.0277 281.77C37.146 282.901 37.5728 284.004 38.2087 284.959C39.5587 286.984 41.6376 288.275 44.0185 288.745C46.7016 289.271 49.4671 289.146 52.184 289.049C55.1312 288.943 58.0805 288.848 61.0277 288.726C64.1133 288.598 67.1986 288.467 70.2842 288.335C70.1821 285.172 70.0604 282.009 69.9229 278.847C69.179 261.752 68.0076 244.647 67.9765 227.53C67.9167 227.495 67.858 227.453 67.8018 227.398C66.4127 226.055 64.7073 225.173 63.1051 224.122C62.1983 223.527 63.0459 222.064 63.9582 222.662C65.309 223.548 66.7167 224.336 67.9826 225.329C67.99 223.547 68.0057 221.765 68.0409 219.983C68.0625 218.895 69.7526 218.895 69.7311 219.983C69.625 225.354 69.6605 230.726 69.782 236.096C70.1752 253.498 71.4111 270.868 71.9739 288.263C80.2556 287.909 88.5377 287.553 96.8206 287.25C103.558 287.005 110.295 286.76 117.033 286.515C118.446 286.464 119.24 285.454 119.414 284.133C119.731 281.702 119.135 279.189 117.787 277.146C117.647 276.934 117.483 276.746 117.299 276.586C117.331 275.129 117.39 273.671 117.307 272.215C117.185 269.992 117.001 267.768 116.84 265.547C116.515 261.098 116.264 256.64 116.164 252.181C115.961 243.262 116.109 234.335 116.614 225.428C117.626 207.635 119.982 189.955 123.838 172.551C124.119 171.282 124.402 170.014 124.695 168.748C127.693 170.306 131.34 170.866 134.616 170.887C138.723 170.913 142.74 169.968 146.45 168.25C146.424 168.442 146.399 168.632 146.376 168.824C145.34 177.067 144.468 185.326 143.707 193.597C142.19 210.084 141.261 226.639 141.39 243.201C141.426 247.789 141.601 252.363 141.819 256.945C142.04 261.605 142.381 266.53 143.678 271.025C143.821 271.521 144.14 271.807 144.508 271.911C144.527 272.566 144.569 273.223 144.616 273.87C144.766 275.973 145.195 280.341 146.111 282.247C147.005 284.108 148.495 285.583 150.394 286.395C152.807 287.424 155.416 287.128 157.964 286.963C169.042 286.24 180.113 285.272 191.185 284.423C192.728 284.304 194.27 284.188 195.81 284.067C197.181 283.962 198.599 283.869 199.816 283.157C201.2 282.347 202.279 278.372 201.802 276.727C201.715 276.427 201.584 276.131 201.411 275.865Z" fill="black"/>
<path fill-rule="evenodd" clip-rule="evenodd" d="M166.838 97.8957C166.754 93.161 166.661 88.3317 165.959 83.6431C165.272 79.0593 163.384 74.916 160.139 71.5875C153.247 64.5172 143.256 62.7902 133.956 61.2076L118.056 58.5017C113.205 57.6764 108.03 56.3571 103.129 57.5276C100.714 58.1044 98.6634 59.4443 96.789 61.0297C94.9823 62.5577 93.0397 64.1987 91.8155 66.2545C90.5891 68.3132 90.1673 70.7199 89.7686 73.0483C89.3189 75.6735 88.9696 78.3192 88.7215 80.9712C88.2241 86.2846 88.1563 91.6378 88.517 96.9622C88.6917 99.5447 88.9698 102.12 89.3248 104.683C89.5009 105.955 89.6999 107.223 89.9246 108.486C89.9908 108.859 90.0412 109.272 90.1091 109.688C89.6076 111.118 89.3225 112.599 89.3455 114.074C89.4132 118.418 93.0703 121.152 96.7572 122.621C98.8949 123.472 101.13 124.05 103.23 125.001C105.44 126.002 106.944 127.623 108.455 129.473C111.336 133.002 114.587 136.173 118.3 138.818C126.172 144.428 136.142 147.081 145.693 145.067C147.985 144.584 150.297 143.834 152.357 142.703C154.531 141.51 156.167 139.78 157.54 137.735C160.09 133.939 161.919 129.665 163.302 125.315C164.713 120.878 165.715 116.433 166.261 111.806C166.805 107.194 166.92 102.536 166.838 97.8957Z" fill="#D08B5B"/>
<path fill-rule="evenodd" clip-rule="evenodd" d="M116.099 42.0087C122.679 41.1014 131.76 44.0503 135.037 49.9965C150.681 46.2991 170.413 46.178 183.307 58.4864C196.761 73.0869 179.862 92.3378 168.656 96.678C169.472 100.653 168.2 126.117 159.199 137.476C152.055 147.1 135.42 151.542 127.722 140.046L127.662 139.952C126.837 138.624 127.548 138.667 128.394 139.654C135.932 146.299 146.181 146.413 154.078 139.4C168.88 126.582 167.353 95.1517 160.31 76.969C140.255 74.7608 118.782 80.8547 104.93 95.9893L105.866 101.642C106.026 102.606 106.207 103.568 106.346 104.534C106.434 105.154 106.444 105.769 106.016 106.271C104.603 107.926 102.221 105.439 100.262 104.45C99.6832 104.368 99.1037 104.337 98.5353 104.377C89.1204 105.593 90.9754 123.902 101.323 120.693C102.192 120.15 102.939 120.315 103.277 121.103C105.743 123.368 107.369 127.407 111.467 131.298C112.913 132.757 114.229 133.978 115.855 135.149C116.81 136.117 119.693 137.105 118.779 138.762C117.051 142.533 106.862 130.688 105.06 127.412C99.4159 129.646 93.1608 128.887 87.3115 128.341C56.4536 126.733 60.573 94.1237 85.8666 73.5358C90.6278 70.0219 95.8808 67.1554 101.341 64.9495C102.087 64.6483 101.761 63.4212 101.005 63.7266C97.392 65.1864 93.8698 66.9239 90.5122 68.9349L90.5072 67.7327C90.5022 65.7077 90.5339 63.5994 90.8848 61.7492C91.0602 60.4672 91.3551 59.0979 91.8092 58.0677C92.3706 54.9095 101.165 44.0689 116.099 42.0087ZM98.124 108.58C98.6004 108.127 99.4899 108.668 99.9141 108.654C100.999 108.803 102.029 109.262 102.833 109.829C103.364 110.127 103.735 110.407 104.046 110.664L104.055 110.662C104.052 110.662 104.049 110.664 104.047 110.665L104.076 110.685C104.529 111.007 106.185 112.822 105.138 112.334C105.06 112.233 104.981 112.135 104.9 112.039C104.891 112.052 104.879 112.065 104.865 112.078L104.924 112.165C105.813 113.506 104.278 112.093 104.041 111.718C104.03 111.727 104.018 111.733 104.005 111.74L104.313 112.115C104.356 112.168 104.39 112.211 104.418 112.247L104.483 112.31C105.511 113.323 105.543 114.235 104.348 112.737C104.395 112.807 104.433 112.882 104.438 112.949L104.509 113.039C105.447 114.251 104.684 113.821 104.218 113.303L104.179 113.258L104.187 113.271C104.621 113.94 103.76 113.47 103.608 113.112L103.602 113.096C103.436 112.96 103.334 112.808 103.299 112.77L103.293 112.763C102.486 111.935 101.317 111.234 100.324 110.915C100.18 110.888 100.034 110.866 99.8869 110.85C99.2896 110.717 98.6858 110.625 98.0757 110.576C98.0011 110.567 97.9254 110.512 97.8689 110.441C96.9463 110.41 97.2311 110.031 97.6139 109.96L97.6206 109.959L97.5446 109.953C96.9526 109.895 96.5482 109.682 97.1469 109.551L97.2227 109.536C97.2135 109.521 97.2052 109.507 97.1972 109.492C96.6845 109.436 97.0191 108.936 97.3037 109.057C97.1839 108.665 97.7312 108.86 97.7995 108.802C97.8516 108.744 97.9163 108.693 97.9536 108.69C98.1185 108.574 98.0386 108.584 98.124 108.58ZM101.261 102.226L101.141 102.296C101.044 102.353 100.944 102.391 100.843 102.413C100.985 102.474 101.125 102.539 101.263 102.609C101.261 102.523 101.26 102.438 101.26 102.353L101.261 102.226Z" fill="black"/>
<path fill-rule="evenodd" clip-rule="evenodd" d="M143.152 128.274C141.732 127.695 140.465 126.728 139.538 125.493C139.216 125.063 139.133 124.61 139.2 124.195C139.276 123.729 139.552 123.306 139.928 123.023C140.305 122.739 140.777 122.598 141.233 122.67C141.63 122.732 142.024 122.949 142.336 123.399L142.402 123.489C142.953 124.235 143.67 124.846 144.488 125.241C145.276 125.621 146.158 125.798 147.07 125.695C148.807 125.499 150.005 124.559 151.278 123.282C151.436 123.121 151.593 122.955 151.752 122.786C151.852 122.633 151.991 122.534 152.146 122.483C152.317 122.425 152.511 122.429 152.689 122.491C152.86 122.55 153.013 122.664 153.116 122.815C153.213 122.958 153.268 123.135 153.251 123.339C153.134 124.661 152.443 125.842 151.461 126.769C150.37 127.799 148.924 128.511 147.563 128.761C146.064 129.036 144.536 128.839 143.152 128.274ZM148.27 107.866C149.866 108.836 152.297 111.098 150.58 113.503C148.56 115.624 145.652 113.193 144.218 112.093C142.889 111.241 141.396 113.433 142.629 114.428C152.986 122.099 157.189 108.12 149.077 106.726C148.184 106.572 147.853 107.566 148.27 107.866ZM129.711 98.9429C129.887 96.7541 133.219 96.257 133.551 98.423C133.847 100.363 133.498 102.145 132.624 103.892C131.79 105.561 129.692 104.783 129.533 103.263C129.32 101.226 129.601 100.304 129.711 98.9429ZM155.076 97.9738C155.541 97.3652 156.212 96.9496 157.015 97.1845C159.526 97.9185 158.786 101.485 157.904 103.22C157.425 104.163 155.876 104.402 155.176 103.572C154.035 102.219 153.489 99.5156 154.939 98.1825C154.979 98.1136 155.022 98.044 155.076 97.9738ZM132.589 89.3654L132.986 89.2959C134.213 89.0836 135.738 88.8796 136.606 89.8665C137.067 90.3898 137.225 91.3624 136.606 91.8633C135.518 92.7446 134.314 92.4031 133.01 92.4777C131.935 92.5394 130.902 92.7174 129.867 93.0135C127.595 93.663 125.744 94.8486 123.804 96.1506C123.55 96.3213 123.29 95.9956 123.411 95.7574C124.531 93.563 126.701 91.7604 128.875 90.6616C130.036 90.0751 131.305 89.5885 132.589 89.3654ZM152.787 88.3823L153.091 88.4445C156.394 89.1353 160.687 90.5153 162.251 93.7615C162.311 94.2205 162.248 94.3189 162.196 94.3832L162.179 94.4046C162.137 94.4595 162.103 94.5351 161.905 94.5976C161.849 94.5844 161.794 94.5705 161.737 94.5557C161.02 94.3677 160.453 94.1087 159.904 93.84L159.308 93.5465C158.617 93.2076 157.92 92.881 157.181 92.6399C155.605 92.1254 153.983 91.7631 152.336 91.5696C151.98 91.5277 151.636 91.4072 151.365 91.2006C151.107 91.0046 150.911 90.7332 150.821 90.3724C150.705 89.9056 150.738 89.5521 150.989 89.1309C151.177 88.8146 151.446 88.5953 151.756 88.4694C152.071 88.3411 152.43 88.3108 152.787 88.3823Z" fill="black"/>
<path fill-rule="evenodd" clip-rule="evenodd" d="M169.071 112.228C168.37 111.288 167.112 110.054 165.839 110.12C165.676 110.129 165.615 110.305 165.713 110.424C166.129 110.933 166.698 111.295 167.115 111.814C167.609 112.429 167.965 113.17 168.197 113.92C168.534 115.009 168.627 116.241 168.327 117.349C167.798 119.301 166.125 120.732 164.3 121.462C162.494 122.186 160.32 122.433 158.612 121.373C156.09 119.809 153.952 117.554 150.783 117.509C150.041 117.499 149.519 117.838 149.208 118.323C148.895 117.856 148.379 117.525 147.656 117.517C144.103 117.477 141.452 119.923 138.469 121.449C136.454 122.48 133.847 122.16 131.767 121.478C129.806 120.836 127.677 119.546 126.937 117.51C126.529 116.385 126.621 115.071 127.04 113.963C127.316 113.234 127.741 112.529 128.268 111.956C128.814 111.362 129.532 110.988 130.091 110.425C130.206 110.309 130.116 110.13 129.965 110.12C127.589 109.959 125.444 112.797 124.995 114.856C124.554 116.884 125.212 118.906 126.546 120.453C129.257 123.599 134.277 124.636 138.184 123.712C141.347 122.964 144.35 121.241 147.656 121.488C148.381 121.543 148.901 121.241 149.215 120.782C149.529 121.254 150.053 121.562 150.783 121.492C153.864 121.193 156.614 123.376 159.604 123.909C161.986 124.333 164.558 123.761 166.598 122.478C168.731 121.136 170.232 118.984 170.331 116.419C170.388 114.943 169.955 113.416 169.071 112.228Z" fill="black"/>
</svg>