<svg xmlns="http://www.w3.org/2000/svg" fill="none" viewBox="39.08 45.86 167.23 240.1">
<path fill-rule="evenodd" clip-rule="evenodd" d="M186.455 183.205C183.523 169.306 173.122 158.521 159.135 153.148C156.446 151.627 153.84 145.099 150.226 143.904C149.647 143.712 150.561 145.237 150.226 145.328C149.031 145.653 147.692 145.687 146.373 144.514C144.015 142.417 143.275 136.292 141.841 133.523C134.28 118.922 115.4 124.635 112.871 140.776C111.107 141.926 108.614 142.939 106.695 143.866C104.718 144.82 102.979 147.131 100.942 147.957C99.1242 148.695 96.1292 148.172 94.2976 148.815C85.8735 151.771 78.7386 155.501 73.1448 163.059C71.9662 164.653 70.6375 166.613 69.5649 168.223C64.0352 174.591 60.1943 181.729 56.6569 189.387C46.7598 211.864 44.0678 236.752 41.6526 260.969C41.7076 265.207 38.8969 276.957 43.054 278.988C42.8055 279.246 42.8955 279.763 43.3565 279.759C53.8973 279.652 64.4135 280.596 74.7908 282.431C79.7976 283.316 84.7776 284.53 89.8776 284.73C100.464 284.656 111.013 282.882 121.586 284.561C134.296 284.561 149.743 284.191 163.884 283.647C177.099 283.139 190.385 284.286 203.437 282.038C204.47 281.875 204.974 280.614 204.758 279.711C203.226 274.129 202.475 268.384 201.615 262.671C201.787 259.007 201.48 255.181 200.125 251.768C196.585 228.727 192.045 205.837 186.455 183.205Z" fill="#D08B5B"/>
<path fill-rule="evenodd" clip-rule="evenodd" d="M150.226 145.413C150.561 145.322 149.647 143.796 150.226 143.988C153.84 145.184 156.446 151.711 159.135 153.233C173.122 158.605 183.523 169.39 186.455 183.289C192.045 205.921 196.585 228.812 200.125 251.853C201.48 255.266 201.787 259.091 201.615 262.756L201.75 263.658C202.556 269.073 203.307 274.507 204.758 279.795C204.974 280.699 204.47 281.959 203.437 282.123C190.533 284.345 177.401 283.249 164.334 283.714L161.611 283.817C148.104 284.313 133.619 284.645 121.586 284.645C111.013 282.966 100.465 284.741 89.8777 284.814C84.7777 284.614 79.7977 283.4 74.7909 282.515C64.4136 280.68 53.8974 279.737 43.3566 279.843C42.8956 279.848 42.8056 279.33 43.0541 279.072C38.8969 277.041 41.7077 265.291 41.6527 261.054L41.871 258.872C44.2359 235.345 47.0568 211.274 56.657 189.471L56.9445 188.852C60.4033 181.428 64.1847 174.504 69.565 168.308L69.894 167.815C70.9018 166.309 72.0841 164.578 73.1449 163.144C78.7387 155.586 85.8736 151.856 94.2977 148.899C96.1293 148.257 99.1243 148.779 100.942 148.042C102.847 147.269 104.492 145.197 106.314 144.152L106.314 151.95L132.68 177.934L147.634 154.994L149.155 145.599C149.522 145.576 149.88 145.507 150.226 145.413Z" fill="#8FA7DF"/>
<path fill-rule="evenodd" clip-rule="evenodd" d="M182.19 213.491C181.912 214.845 181.521 216.2 181.001 217.483C180.5 218.722 179.746 219.831 179.227 221.055C179.157 221.22 179.043 221.344 178.905 221.439L178.948 221.772L178.988 222.105C179.247 224.352 179.538 226.592 179.791 228.838L179.913 229.961C180.409 234.651 181.193 239.318 181.802 243.995C182.398 248.575 183.004 253.155 183.652 257.728C184.322 262.444 185.005 267.152 185.801 271.849C186.137 273.832 186.488 275.814 186.854 277.794L187.136 279.309C190.043 280.009 190.838 284.063 187.878 285.559C186.534 286.235 184.808 286.073 183.701 285.01C182.55 283.902 182.503 281.904 182.236 280.404L181.978 279.01C180.053 268.526 178.383 257.922 177.602 247.29C177.401 244.545 177.232 241.797 177.122 239.047C177.018 236.461 177.068 233.874 177.028 231.288L177.014 230.583C176.953 227.824 177.004 225.07 177.076 222.312C177.084 221.976 177.099 221.64 177.116 221.302C177.019 221.188 176.949 221.053 176.92 220.922L176.881 220.748C176.786 220.302 176.894 219.78 177.236 219.461C177.384 217.582 177.578 215.706 177.631 213.829C177.636 213.674 177.857 213.679 177.87 213.829C177.995 215.427 178.244 217.029 178.493 218.629C180.097 217.339 181.282 215.213 181.981 213.434C182.032 213.305 182.22 213.351 182.19 213.491ZM144.251 138.795C144.517 140.012 145.043 141.105 145.749 142.122C146.085 142.608 146.467 143.06 146.925 143.439C147.319 143.762 147.767 143.973 148.185 144.254C148.793 144.159 149.429 144.39 149.856 144.838L149.788 144.183C149.767 143.971 150.118 143.929 150.158 144.134C152.006 153.459 153.692 162.79 155.151 172.183L155.791 176.331L156.393 180.225C157.392 186.713 158.358 193.2 159.086 199.736C160.056 208.458 160.871 217.204 161.467 225.962C162.065 234.782 162.433 243.608 162.695 252.445C162.76 254.672 162.83 256.898 162.897 259.125L163.349 256.462C163.799 253.798 164.241 251.132 164.619 248.456C165.978 238.88 167.064 229.236 167.594 219.578C168.08 210.739 167.917 201.725 165.669 193.114C165.103 190.948 164.41 188.815 163.574 186.738C162.762 184.717 161.655 182.845 160.783 180.854C159.768 178.538 159.464 176.352 159.986 173.858C160.443 171.686 161.243 169.642 161.387 167.406C161.655 163.255 160.305 159.235 158.398 155.602C157.894 154.644 157.364 153.7 156.811 152.763C155.136 149.933 153.247 147.207 151.286 144.593C151.181 144.453 151.404 144.299 151.519 144.413C153.306 146.18 155.26 147.917 156.868 149.847C157.649 150.785 158.412 151.742 159.135 152.725C167.062 154.051 173.873 158.99 178.529 165.512C183.813 172.914 186.485 181.822 188.463 190.595C190.662 200.345 192.517 210.183 194.493 219.981C196.537 230.12 198.572 240.258 200.63 250.395C201.652 255.427 202.675 260.459 203.695 265.493C204.213 268.042 204.756 270.585 205.324 273.125C205.616 274.427 205.928 275.727 206.199 277.033C206.503 278.506 206.22 279.449 205.223 280.531C204.855 280.933 204.274 280.926 203.818 280.713L203.675 280.646L203.537 280.579C202.973 280.301 202.53 280.014 202.178 279.396C201.792 278.718 201.73 277.965 201.598 277.211C201.352 275.822 201.109 274.434 200.864 273.043C200.498 270.963 200.1 268.889 199.695 266.816L197.662 256.455C197.119 253.693 196.577 250.93 196.03 248.169C194.08 238.295 192.128 228.423 190.176 218.55C188.302 209.071 186.644 199.527 184.51 190.102L184.389 189.572L184.266 189.041C182.358 180.917 179.692 173.058 174.855 166.174C171.133 160.879 165.963 156.151 159.874 153.759C160.303 154.376 160.715 155.006 161.108 155.648C163.576 159.681 165.378 164.468 164.955 169.27C164.748 171.616 163.857 173.922 163.941 176.287C164.019 178.388 165.319 180.233 166.217 182.061C168.255 186.203 169.73 190.606 170.681 195.122C172.588 204.191 172.582 213.522 171.925 222.729C171.211 232.736 169.855 242.742 168.31 252.652C167.518 257.735 166.464 262.775 165.656 267.85C165.257 270.352 164.714 272.848 164.239 275.338L164.012 276.528C163.885 277.188 163.754 277.846 163.602 278.497L163.508 278.886V278.956C163.504 279.436 163.373 279.834 163.161 280.151C162.872 281.078 162.513 281.983 162.036 282.852C161.79 283.295 161.435 283.545 161.049 283.636C160.66 284.526 159.779 285.21 158.727 285.206L144.891 285.153C136.854 285.121 128.818 285.068 120.781 285.024C118.753 285.014 116.727 284.976 114.701 284.923C112.802 284.87 110.981 284.642 109.102 284.405C106.981 284.139 105.832 282.636 106.149 280.516C106.219 280.049 106.294 279.584 106.367 279.119C105.944 279.259 105.441 279.193 105.101 278.861L104.782 278.549C104.34 278.112 103.945 277.682 103.664 277.098C103.375 276.498 103.14 275.864 102.885 275.251C102.333 273.933 101.797 272.61 101.275 271.28C100.229 268.621 99.1834 265.952 98.2114 263.266C96.287 257.946 94.5839 252.546 93.1031 247.085C90.4623 237.342 88.5522 227.41 87.348 217.39L87.0601 215.002L86.9764 214.297C86.5197 210.413 86.1354 206.469 86.317 202.593C86.4292 200.167 86.805 197.722 87.7116 195.456C88.548 193.366 89.8389 191.578 91.0663 189.71L91.2068 189.494L91.348 189.273C92.4215 187.576 93.2756 185.802 93.3184 183.741C93.3618 181.65 92.7528 179.614 92.0718 177.656L91.9021 177.174L91.7882 176.854C90.3395 172.808 88.6909 168.818 89.2346 164.415C90.0377 157.931 93.967 152.704 98.9109 148.674C94.5142 149.545 90.1623 151.265 86.3215 153.446C81.7853 156.025 77.7015 159.427 74.1797 163.268C67.5248 170.525 62.7734 179.233 58.8841 188.224C54.8128 197.633 51.7938 207.493 49.5186 217.481C47.2306 227.526 45.6989 237.733 44.6529 247.979C44.1313 253.079 43.7212 258.191 43.3813 263.306C43.2081 265.927 43.0771 268.552 42.8743 271.168C42.6715 273.783 42.5804 276.437 41.9424 278.982C41.6445 280.167 39.6353 280.288 39.4201 278.982C38.9423 276.065 39.0758 273.048 39.2091 270.094L39.2212 269.826C39.3524 266.884 39.5236 263.944 39.7262 261.004C40.1405 254.996 40.6938 248.995 41.4163 243.014C43.9494 222.019 48.6208 201.133 57.7834 181.968C62.0975 172.941 67.6348 164.17 75.3377 157.652C79.0051 154.551 83.1396 152.076 87.5952 150.284C91.5799 148.68 95.6278 147.921 99.8616 147.923C101.985 146.296 104.264 144.878 106.542 143.667C106.679 143.593 106.823 143.77 106.709 143.885C106.65 143.942 106.592 144.001 106.533 144.056C106.791 144.073 107.057 144.193 107.296 144.445C108.133 145.322 108.838 146.419 109.47 147.558C110.431 148.758 111.348 149.999 112.307 151.187C113.843 153.089 115.415 154.963 117.006 156.823C119.678 159.949 122.437 163.016 125.314 165.959L125.795 166.448C127.286 167.96 128.797 169.768 130.561 170.965L130.655 171.027C131.399 171.512 131.927 171.6 132.561 170.876C133.138 170.217 133.619 169.452 134.112 168.725L134.226 168.558C136.747 164.895 139.083 161.097 141.198 157.187C142.162 155.408 143.079 153.602 143.949 151.777L144.209 151.229C144.682 150.223 145.195 149.236 145.586 148.2C145.677 147.957 145.766 147.714 145.852 147.473C144.521 146.6 143.49 144.711 143.117 143.232C142.728 141.695 142.924 140.118 143.617 138.713C143.748 138.449 144.187 138.514 144.251 138.795ZM78.5912 201.234C78.4071 207.076 78.2954 212.924 78.0205 218.762L77.9256 220.755C78.3543 221.232 78.6057 221.784 78.405 222.541C78.327 222.83 78.0965 223.092 77.8092 223.19L77.7196 225.042C77.3119 233.379 76.834 241.698 75.9606 250.014C74.8684 260.421 73.605 270.811 72.344 281.199C72.1644 282.67 71.1416 283.836 69.5508 283.621C67.9411 283.403 67.2883 282.002 67.4996 280.541C68.3299 274.812 69.1283 269.078 69.8278 263.329L70.6242 256.78C71.6229 248.593 72.6451 240.407 73.8228 232.246C74.3151 228.835 74.8263 225.426 75.3395 222.016L75.1601 221.784C74.4268 220.831 73.6684 219.899 72.9184 218.96C71.4778 217.151 70.0559 215.357 68.7355 213.463C68.6698 213.368 68.8031 213.228 68.898 213.301C70.7487 214.668 72.5003 216.13 74.2623 217.616L75.8045 218.922C76.6918 213.032 77.5707 207.139 78.3543 201.234C78.3735 201.087 78.5954 201.076 78.5912 201.234ZM105.213 145.328C104.099 146.378 102.961 147.406 101.839 148.45L101.428 148.834L101.019 149.22C99.0468 151.091 97.1576 153.038 95.5834 155.274C92.6932 159.381 90.9714 164.387 92.1733 169.401C93.1707 173.554 95.4587 177.318 96.0735 181.575C96.3817 183.707 96.2319 185.85 95.4289 187.864C94.6092 189.919 93.2993 191.679 92.1226 193.533C89.5662 197.561 89.2176 201.983 89.4714 206.649C89.7376 211.523 90.2972 216.399 90.9883 221.228C92.3867 231.014 94.4951 240.698 97.286 250.181C98.6827 254.93 100.332 259.578 101.974 264.244C102.792 266.567 103.745 268.835 104.727 271.092C105.244 272.28 105.775 273.461 106.314 274.64C106.115 272.975 106.115 271.265 106.018 269.611C105.878 267.239 105.701 264.872 105.538 262.503C105.207 257.695 104.911 252.882 104.647 248.07C103.711 230.908 103.022 213.732 103.073 196.543C103.098 187.947 103.273 179.351 103.643 170.764C103.817 166.72 104.152 162.68 104.456 158.642L104.52 157.777C104.788 154.152 105.109 150.519 105.661 146.926C105.497 146.558 105.356 146.184 105.251 145.802L105.213 145.658L105.24 145.662C105.215 145.55 105.207 145.438 105.213 145.328ZM114.843 130.559C114.866 130.46 115.007 130.468 115.033 130.559C115.66 132.672 115.438 134.997 114.898 137.123C114.606 138.275 114.192 139.393 113.691 140.471L113.516 140.848C113.087 141.766 112.604 142.712 111.769 143.284C111.42 143.523 110.797 143.538 110.448 143.284L110.27 143.149C110.241 143.127 110.212 143.103 110.184 143.079C109.859 142.807 109.698 142.204 109.848 141.807C110.235 140.782 111.112 140.03 111.718 139.116C112.255 138.305 112.73 137.449 113.125 136.559C113.976 134.634 114.359 132.59 114.843 130.559Z" fill="black"/>
<path fill-rule="evenodd" clip-rule="evenodd" d="M133.465 60.2713C165.196 61.2784 167.11 76.3883 167.11 101.728C167.11 127.068 150.649 143.036 144.588 145.824C138.527 148.612 122.567 160.588 108.164 155.069C93.7611 149.55 97.9319 126.233 97.9319 116.215C97.9319 106.196 101.733 59.2642 133.465 60.2713Z" fill="#D08B5B"/>
<path fill-rule="evenodd" clip-rule="evenodd" d="M102.795 100.486C109.356 73.6655 121.334 60.5802 138.727 61.2296C164.817 62.2036 164.542 88.8625 162.905 86.4318C161.836 84.8437 154.349 79.296 140.444 69.7886L139.584 69.2016L102.795 100.486Z" fill="#9FD8E5"/>
<path fill-rule="evenodd" clip-rule="evenodd" d="M146.339 137.502C140.511 140.763 133.839 140.89 127.571 138.837C123.812 137.61 120.365 135.711 117.14 133.442C114.334 131.465 111.829 129.274 109.348 126.947C107.305 122.43 105.486 117.922 104.634 113.008C103.871 108.597 103.769 104.017 104.655 99.6149C111.203 94.2149 117.711 88.7706 124.211 83.3095C127.521 80.5279 130.839 77.7615 134.197 75.0391C135.903 73.6569 137.592 72.2535 139.291 70.865C139.571 70.6367 139.85 70.4085 140.13 70.1802C143.638 72.7544 147.399 74.9611 150.882 77.5775C152.705 78.9491 154.478 80.4095 156.167 81.9459C157.052 82.7513 157.917 83.5819 158.76 84.4337C159.532 85.2116 160.276 86.3274 161.37 86.6213C161.52 86.6613 161.661 86.6697 161.794 86.6507C163.257 99.4924 164.296 113.359 158.029 125.021C155.294 130.109 151.417 134.657 146.339 137.502ZM108.431 142.221C107.628 141.484 108.824 140.292 109.623 141.025C114.642 145.634 121.203 148.077 127.831 149.208C128.9 149.391 128.444 151.02 127.382 150.838C120.463 149.658 113.662 147.025 108.431 142.221ZM102.407 149.292C101.449 148.777 102.302 147.318 103.258 147.832C107.168 149.935 111.457 151.027 115.807 151.765C116.877 151.946 116.421 153.575 115.359 153.395C110.861 152.632 106.448 151.465 102.407 149.292ZM118.321 78.0616C121.566 75.1427 125.053 72.3653 128.736 70.0217C132.463 67.6503 136.534 66.2322 140.934 66.1984C140.626 66.4456 140.333 66.7204 140.036 66.9759C139.206 67.6884 138.377 68.4048 137.548 69.1192C135.891 70.5501 134.23 71.9786 132.594 73.4329C129.373 76.2988 126.141 79.1499 122.926 82.0221C116.747 87.5426 110.7 93.1833 104.785 98.9872C104.816 98.8456 104.85 98.704 104.884 98.5626C106.842 90.362 112.17 83.5967 118.321 78.0616ZM143.755 66.5555C143.776 66.4921 143.791 66.4306 143.799 66.3717C152.243 67.4749 159.295 73.7032 161.626 81.9038C161.424 82.187 161.312 82.523 161.354 82.88C161.375 83.0599 161.397 83.2416 161.418 83.4213C161.129 83.1341 160.832 82.8654 160.579 82.6097C159.737 81.7558 158.875 80.925 157.99 80.1156C156.179 78.4609 154.298 76.9138 152.316 75.4703C148.87 72.9594 145.138 70.6515 141.029 69.4468C141.299 69.2249 141.569 69.003 141.841 68.7832C142.652 68.1214 143.405 67.5763 143.755 66.5555ZM158.893 57.7866C153.708 52.1076 146.53 47.9483 138.97 46.5026C131.751 45.1204 124.277 46.0313 117.458 48.7176C103.187 54.3395 91.9269 66.7016 86.6542 81.0267C83.5804 89.3729 82.5727 98.5223 83.4963 107.357C84.4153 116.151 87.0569 125.233 91.8636 132.715C92.3042 133.399 92.787 134.057 93.293 134.693C93.0674 137.275 92.2073 139.807 90.8538 142.01C90.781 142.128 90.7043 142.243 90.6284 142.359C89.2425 143.4 87.8049 144.376 86.4014 145.384C85.1852 146.258 83.9814 147.154 82.8377 148.121C81.7581 149.034 80.5043 150.051 79.7734 151.284C79.1745 152.293 78.9299 153.666 79.7475 154.629C80.7326 155.789 82.4019 155.38 83.7364 155.38C83.8507 155.38 83.9648 155.382 84.0788 155.384C84.4796 155.636 84.8924 155.865 85.2923 156.077C89.3338 158.224 93.39 160.349 97.4504 162.462C105.538 166.674 113.591 171.056 121.845 174.934C125.669 176.732 129.763 178.305 134.047 178.299C138.065 178.292 141.698 176.692 144.835 174.26C148.41 171.489 151.4 167.97 154.301 164.521C155.46 163.14 156.596 161.743 157.712 160.327C159.854 159.611 161.979 159.402 163.889 160.784C165.421 161.894 167.441 160.384 167.477 158.719C167.49 158.127 167.465 157.544 167.401 156.969C167.018 153.418 165.284 150.206 163.332 147.226C162.266 145.596 161.142 143.996 160.012 142.411C159.746 142.037 159.485 141.663 159.232 141.282C163.771 134.583 167.372 127.154 169.585 119.391C171.911 111.222 172.701 102.751 172.183 94.2868C171.386 81.3141 167.836 67.5848 158.893 57.7866Z" fill="black"/>
<path fill-rule="evenodd" clip-rule="evenodd" d="M143.152 128.274C141.732 127.695 140.465 126.728 139.538 125.493C139.216 125.063 139.133 124.61 139.2 124.195C139.276 123.729 139.552 123.306 139.928 123.023C140.305 122.739 140.777 122.598 141.233 122.67C141.63 122.732 142.024 122.949 142.336 123.399L142.402 123.489C142.953 124.235 143.67 124.846 144.488 125.241C145.276 125.621 146.158 125.798 147.07 125.695C148.807 125.499 150.005 124.559 151.278 123.282C151.436 123.121 151.593 122.955 151.752 122.786C151.852 122.633 151.991 122.534 152.146 122.483C152.317 122.425 152.511 122.429 152.688 122.491C152.86 122.55 153.013 122.664 153.116 122.815C153.213 122.958 153.268 123.135 153.25 123.339C153.134 124.661 152.443 125.842 151.461 126.769C150.37 127.799 148.924 128.511 147.563 128.761C146.064 129.036 144.536 128.839 143.152 128.274ZM148.27 107.866C149.866 108.836 152.297 111.098 150.58 113.503C148.56 115.624 145.652 113.193 144.218 112.093C142.889 111.241 141.396 113.433 142.629 114.428C152.986 122.099 157.189 108.12 149.077 106.726C148.184 106.572 147.853 107.566 148.27 107.866ZM129.711 98.9429C129.887 96.7541 133.219 96.257 133.551 98.423C133.847 100.363 133.498 102.145 132.624 103.892C131.79 105.561 129.692 104.783 129.533 103.263C129.32 101.226 129.601 100.304 129.711 98.9429ZM155.076 97.9738C155.541 97.3652 156.211 96.9496 157.015 97.1845C159.526 97.9185 158.786 101.485 157.904 103.22C157.425 104.163 155.876 104.402 155.176 103.572C154.035 102.219 153.489 99.5156 154.939 98.1825C154.979 98.1136 155.022 98.044 155.076 97.9738ZM132.589 89.3654L132.986 89.2959C134.213 89.0836 135.738 88.8796 136.606 89.8665C137.067 90.3898 137.225 91.3624 136.606 91.8633C135.518 92.7446 134.314 92.4031 133.01 92.4777C131.935 92.5394 130.902 92.7174 129.867 93.0135C127.595 93.663 125.744 94.8486 123.804 96.1506C123.55 96.3213 123.29 95.9956 123.411 95.7574C124.531 93.563 126.701 91.7604 128.875 90.6616C130.036 90.0751 131.305 89.5885 132.589 89.3654ZM152.787 88.3823L153.091 88.4445C156.394 89.1353 160.687 90.5153 162.251 93.7615C162.311 94.2205 162.248 94.3189 162.196 94.3832L162.179 94.4046C162.137 94.4595 162.103 94.5351 161.905 94.5976C161.849 94.5844 161.794 94.5705 161.737 94.5557C161.02 94.3677 160.453 94.1087 159.904 93.84L159.308 93.5465C158.617 93.2076 157.92 92.881 157.181 92.6399C155.605 92.1254 153.983 91.7631 152.336 91.5696C151.98 91.5277 151.636 91.4072 151.365 91.2006C151.107 91.0046 150.911 90.7332 150.821 90.3724C150.705 89.9056 150.738 89.5521 150.989 89.1309C151.177 88.8146 151.446 88.5953 151.756 88.4694C152.071 88.3411 152.43 88.3108 152.787 88.3823Z" fill="black"/>
</svg>