<svg xmlns="http://www.w3.org/2000/svg" fill="none" viewBox="35.07 17.54 165.46 266.8">
<path fill-rule="evenodd" clip-rule="evenodd" d="M194.637 251.934C193.785 247.123 193.005 242.299 192.295 237.465C191.959 235.169 191.63 232.872 191.335 230.571C191.128 228.959 190.813 227.115 191.909 225.921C193.452 224.24 194.854 222.802 195.043 220.395C195.22 218.129 194.455 215.66 193.976 213.462C192.972 208.851 191.722 204.297 190.341 199.786C188.938 195.204 187.4 190.664 185.839 186.133C184.38 181.897 182.977 177.622 181.077 173.558C177.47 165.845 171.369 160.132 163.828 156.318C161.953 155.37 158.128 151.984 156.169 151.225C154.367 150.528 154.374 152.564 152.601 151.797C151.184 151.184 149.864 150.367 149.071 148.998C148.209 147.512 146.049 145.433 145.72 143.703C145.023 140.035 145.778 136.914 143.161 134.154C140.839 131.703 137.717 130.024 134.487 129.123C127.38 127.14 117.903 128.526 113.616 135.132C111.568 138.286 110.852 142.1 108.089 144.674C105.676 146.922 106.216 148.459 103.091 149.617C102.914 149.683 98.1169 148.654 97.9399 148.72C94.5211 147.988 91.2536 150.037 88.1171 151.225C83.4411 152.998 78.9893 155.304 74.8068 158.045C66.3732 163.573 59.15 170.752 53.195 178.874C47.1908 187.064 42.5321 196.244 39.215 205.838C38.4094 208.168 37.6858 210.527 37.0476 212.908C36.6903 214.241 36.3086 215.624 36.7436 216.988C37.0994 218.105 37.8908 218.936 38.8201 219.606C40.0799 220.514 42.6069 221.104 42.5577 222.931C42.5201 224.32 42.0491 225.781 41.8193 227.153C41.5457 228.787 41.3209 230.431 41.0961 232.073C40.0736 239.544 39.2777 247.057 38.9258 254.592C38.5793 262.011 38.2917 269.581 38.8062 276.998C38.8402 277.487 38.986 277.936 39.2211 278.315C39.0016 278.399 38.9847 278.808 39.2579 278.866C39.4493 278.907 39.6403 278.948 39.8317 278.988C40.2293 279.289 40.7251 279.474 41.2958 279.492C41.6826 279.504 42.0692 279.521 42.4556 279.541C46.5333 280.394 50.6103 281.199 54.7413 281.809C59.7627 282.551 64.7989 283.155 69.8507 283.646C80.2313 284.656 90.5302 284.321 100.925 283.777C111.303 283.234 121.675 283.107 132.064 283.377C142.462 283.648 152.857 284.1 163.257 284.285C174.877 284.492 186.478 284.174 198.064 283.25C199.653 283.124 200.636 281.859 200.322 280.281C198.445 270.825 196.318 261.431 194.637 251.934Z" fill="#D08B5B"/>
<path fill-rule="evenodd" clip-rule="evenodd" d="M88.1167 151.225L88.3437 151.138C91.4108 149.939 94.6031 148.005 97.9395 148.719C98.0575 148.676 100.228 149.118 101.715 149.399L100.304 150.873L97.8132 151.352C106.406 165.54 116.569 172.633 128.302 172.633C140.035 172.633 148.938 165.54 155.012 151.352L155.84 151.123C155.943 151.147 156.052 151.18 156.168 151.225C158.128 151.983 161.953 155.37 163.828 156.318C171.369 160.132 177.47 165.844 181.077 173.558C182.914 177.487 184.285 181.612 185.693 185.709L185.839 186.133C187.399 190.664 188.938 195.203 190.341 199.786C191.662 204.101 192.863 208.455 193.843 212.86L193.976 213.461C194.454 215.66 195.22 218.129 195.042 220.394C194.975 221.252 194.754 221.987 194.427 222.653L177.431 228.771L185.528 284.017C178.111 284.335 170.688 284.417 163.257 284.285C152.856 284.1 142.462 283.647 132.064 283.377C121.99 283.115 111.931 283.226 101.868 283.729L99.312 283.859C89.4642 284.352 79.694 284.604 69.8503 283.646L69.1796 283.58L69.1795 275.499L72.6373 230.5L55.1137 227.201L37.912 218.842C37.3922 218.323 36.9751 217.716 36.7432 216.988C36.3403 215.724 36.6381 214.445 36.9681 213.204L37.0472 212.908C37.6855 210.526 38.4091 208.168 39.2146 205.837C42.5317 196.243 47.1904 187.064 53.1946 178.874C59.1496 170.751 66.3729 163.573 74.8065 158.045C78.9889 155.304 83.4407 152.997 88.1167 151.225Z" fill="#FFCF77"/>
<path fill-rule="evenodd" clip-rule="evenodd" d="M94.6975 148.487C95.772 148.44 96.8676 148.614 97.9396 148.72C98.033 148.729 98.0685 148.873 97.9633 148.895C96.0448 149.296 94.1473 149.844 92.2631 150.401L91.4564 150.64C89.3317 151.269 87.2693 151.917 85.2124 152.756C81.113 154.427 77.2195 156.683 73.6362 159.275C59.8379 169.255 49.8513 184.366 43.5492 200.01C41.8377 204.259 40.3876 208.613 39.2129 213.04C38.9273 214.118 38.6585 215.199 38.4038 216.284C38.329 216.602 38.003 217.417 38.1817 217.742C38.3397 218.03 38.9541 218.207 39.2395 218.357L40.2031 218.857C42.0828 219.826 45.2137 221.419 45.5277 221.574L46.0174 221.815C54.0267 225.743 62.5845 229.074 71.5975 229.305L71.668 228.535C72.0699 224.278 72.5972 219.999 73.7482 215.873C73.8101 215.651 74.0921 215.726 74.1179 215.923C74.7591 220.807 74.5542 225.73 74.3304 230.637C73.9343 239.328 73.4083 248.014 72.9407 256.702C72.7066 261.048 72.4041 265.391 72.1309 269.735C71.8573 274.087 71.7688 278.544 71.1441 282.861C71.0049 283.823 69.8784 284.346 69.0253 284.244C68.0814 284.132 67.3552 283.3 67.3508 282.347C67.3394 279.832 67.6552 277.288 67.8308 274.78C67.9975 272.397 68.1764 270.015 68.3598 267.633C69.0299 258.94 69.8009 250.257 70.5139 241.568C70.7666 238.486 71.0395 235.407 71.3205 232.328C61.7727 232.02 52.8528 228.482 44.3433 224.348C44.2202 227.146 43.9227 229.938 43.6347 232.724C42.8309 240.499 42.1221 248.271 41.5916 256.07C41.3237 260.009 41.1287 263.953 40.9588 267.897C40.8754 269.835 40.8073 271.774 40.7552 273.714C40.7377 274.36 40.7219 275.007 40.708 275.653L40.6789 277.135C40.6552 278.073 40.5598 278.942 39.7704 279.626C38.9687 280.32 37.8857 280.356 37.0922 279.626C36.0299 278.647 36.2178 277.314 36.2492 276C36.2754 274.891 36.3069 273.783 36.3435 272.675C36.4168 270.458 36.5104 268.243 36.6242 266.028C37.0227 258.285 37.8189 250.573 38.8594 242.892L39.2656 239.927C40.0241 234.415 40.8568 228.777 42.5524 223.467C41.8922 223.139 41.2339 222.808 40.5781 222.476C39.4149 221.887 38.2121 221.334 37.0814 220.683C36.1844 220.168 35.4107 219.46 35.161 218.416C34.8825 217.252 35.3084 215.98 35.5913 214.845L35.6159 214.745C35.8933 213.602 36.192 212.464 36.5072 211.331C37.7854 206.736 39.3659 202.231 41.2155 197.836C44.919 189.038 49.6994 180.678 55.5386 173.12C60.7947 166.317 67.0039 160.147 74.2812 155.52C77.839 153.258 81.6304 151.4 85.64 150.087C87.5142 149.473 89.5533 148.939 91.5156 148.719C92.574 148.601 93.634 148.533 94.6975 148.487ZM113.735 134.544C115.012 133.172 117.549 134.592 116.936 136.408C115.494 140.682 113.197 144.579 109.614 147.387C106.245 150.027 102.227 151.742 97.9011 151.376C97.8677 151.373 97.8388 151.364 97.8132 151.352L98.186 151.858C101.113 155.819 104.201 159.725 107.923 162.963C115.506 169.559 125.83 173.117 135.8 170.586C143.644 168.595 150.555 162.39 152.587 154.482C152.296 154.613 151.949 154.657 151.569 154.575C149.943 154.221 148.333 152.511 147.285 151.284C146.15 149.957 145.264 148.524 144.615 146.904C143.426 143.94 143.045 140.123 144.668 137.251C144.868 136.897 145.33 137.096 145.369 137.441L145.431 137.981C145.744 140.672 146.134 143.275 147.402 145.729C148.023 146.929 148.767 148.101 149.673 149.106C150.157 149.644 150.683 150.158 151.25 150.609C151.803 151.049 152.472 151.366 152.967 151.87L153.058 151.967L153.061 151.95C153.186 150.884 153.933 150.415 154.663 150.444C155.371 150.473 156.201 150.784 156.523 150.933L156.553 150.948C161.487 153.317 166.031 156.405 170.307 159.831C179.15 166.916 185.775 176.179 188.985 187.086C190.561 192.439 191.465 197.956 192.419 203.446L193.007 206.81C193.898 211.878 194.893 217.047 196.904 221.761C197.424 222.981 197.023 224.125 195.747 224.605C194.155 225.203 192.556 225.783 190.955 226.356C191.742 229.73 192.221 233.221 192.81 236.611C194.062 243.818 195.596 250.979 196.911 258.176C197.584 261.856 198.19 265.548 198.862 269.229C199.186 271.001 199.523 272.771 199.852 274.543C200.028 275.498 200.189 276.456 200.358 277.413L200.387 277.571C200.484 278.076 200.605 278.598 200.466 279.103C200.308 279.679 199.859 280.086 199.458 280.499C199.127 280.839 198.65 280.841 198.246 280.655L198.113 280.594C197.39 280.256 196.824 279.919 196.567 279.103C196.405 278.587 196.347 278.005 196.241 277.473C196.037 276.453 195.844 275.432 195.662 274.408C195.298 272.36 194.942 270.31 194.595 268.258L194.27 266.337C193.157 259.715 192.1 253.054 191.565 246.362C191.328 243.394 191.077 240.428 190.823 237.461L190.633 235.236C190.392 232.42 190.097 229.532 190.056 226.678L189.098 227.018L184.427 228.67C183.269 229.079 181.794 229.919 180.548 229.766C179.938 229.691 179.473 229.499 179.113 229.15C179.544 235.223 180.126 241.285 180.902 247.316C181.608 252.804 182.391 258.284 183.315 263.74C183.773 266.442 184.243 269.14 184.754 271.832C185.01 273.178 185.274 274.522 185.545 275.865C185.681 276.535 185.842 277.206 185.947 277.881C186.068 278.655 185.855 279.131 185.423 279.767C185.069 280.29 184.359 280.558 183.784 280.198C183.022 279.719 182.624 279.305 182.4 278.434C182.197 277.643 182.073 276.817 181.915 276.016C181.624 274.537 181.343 273.056 181.072 271.573C180.504 268.472 179.981 265.364 179.513 262.246C177.867 251.262 176.822 240.187 176.294 229.093C176.033 223.62 175.953 218.142 175.999 212.663C176.023 209.854 176.114 207.038 176.313 204.236C176.514 201.401 176.932 198.622 177.306 195.813C177.319 195.714 177.459 195.708 177.464 195.813C177.641 198.962 177.918 202.107 178.054 205.264C178.184 208.276 178.241 211.293 178.344 214.307C178.479 218.268 178.667 222.231 178.916 226.192C179.366 225.699 180.045 225.415 180.724 225.526C181.707 225.32 182.766 224.803 183.704 224.49L187.239 223.309C189.098 222.688 190.956 222.071 192.822 221.473C191.154 215.861 190.012 210.165 189.036 204.386L188.601 201.787C187.74 196.672 186.812 191.554 185.252 186.6C183.613 181.392 181.159 176.55 177.904 172.165C174.695 167.844 170.792 164.038 166.773 160.479C163.332 157.433 159.651 154.682 156.141 151.718C156.178 151.915 156.186 152.131 156.153 152.369C155.407 157.832 152.558 162.92 148.588 166.704C140.612 174.307 128.804 175.884 118.596 172.319C108.72 168.87 99.9892 160.703 96.9045 150.597C96.8517 150.424 97.0833 150.356 97.1762 150.483C97.3473 150.717 97.5193 150.952 97.6915 151.186C97.6799 151.093 97.7283 150.992 97.8432 150.947C101.442 149.557 104.977 147.586 107.675 144.796C108.989 143.437 110.137 141.896 111.043 140.235C111.477 139.439 111.867 138.615 112.178 137.764L112.257 137.544C112.634 136.477 112.949 135.389 113.735 134.544Z" fill="black"/>
<path fill-rule="evenodd" clip-rule="evenodd" d="M162.394 89.5609C161.893 83.0632 162.669 76.2526 160.17 70.0765C155.813 59.8292 143.594 56.4125 134.122 52.5112C130.327 51.3871 117.558 51.23 113.114 49.7422C103.058 46.375 100.656 42.363 92.6649 48.7743C91.3161 49.8695 90.4722 51.0599 89.8566 52.6862L89.8819 52.6932C89.706 53.3712 89.8945 54.0477 90.2906 54.5645C86.826 58.1147 85.3762 63.4374 87.1538 68.1634C92.955 80.4616 92.6822 87.1114 90.8131 100.333C88.3722 112.675 93.9499 117.184 103.187 123.9C102.811 124.631 102.733 125.603 103.224 126.248C113.905 141.296 134.046 148.48 151.302 140.843C158.307 137.717 161.434 130.239 163.218 123.491C165.297 115.936 165.936 107.974 164.244 100.277C163.561 96.7179 162.672 93.1841 162.394 89.5609Z" fill="#D08B5B"/>
<path fill-rule="evenodd" clip-rule="evenodd" d="M85.887 71.1282L92.2384 75.37L114.973 51.3422L107.408 45.3726C107.408 45.3726 93.6816 55.5424 90.9828 58.2264C88.284 60.9105 85.887 71.1282 85.887 71.1282Z" fill="#FFCF77"/>
<path fill-rule="evenodd" clip-rule="evenodd" d="M100.779 17.5709C102.076 17.3757 103.055 18.1822 103.521 19.3189L103.545 19.3801C103.695 19.7669 103.861 20.1431 104.041 20.5129C107.285 18.9172 111.915 19.3272 113.968 22.5588C115.433 24.8667 114.54 27.6058 113.987 30.0533L113.625 31.6659C114.326 32.113 114.854 32.9138 114.829 33.743L114.826 33.8069L114.679 36.0556C115.147 35.5801 115.575 35.0623 115.956 34.5107C116.22 34.0267 116.504 33.5511 116.81 33.0904C118.608 30.3788 122.646 32.7353 121.161 35.6393C120.877 36.1993 120.556 36.7298 120.213 37.2413C119.825 37.9958 119.507 38.7715 119.262 39.5683C119.964 39.8747 120.504 40.5553 120.561 41.5824C120.693 43.9813 119.437 45.9827 117.438 47.2403C116.85 47.6101 116.243 47.682 115.693 47.5446C115.596 47.6757 115.499 47.8067 115.406 47.9398C116.203 48.5887 116.922 49.3284 117.54 50.1485C119.399 49.8695 121.269 49.7384 123.139 49.7342C125.424 48.6119 128.161 48.6352 130.617 49.0558C132.198 49.3263 133.716 49.8526 135.272 50.2309C136.912 50.6282 138.577 50.643 140.237 50.9135C142.328 51.2538 144.162 52.2218 145.315 53.7668C146.582 53.8048 147.915 54.3247 149.019 55.0307C151.592 56.675 154.149 58.3425 156.714 59.9974C157.699 60.6327 158.067 61.647 157.886 62.7782L157.874 62.8506L157.788 63.3198L157.991 63.6086C158.776 64.7202 159.63 65.8845 160.138 67.1114C161.078 68.4704 161.928 69.8949 162.681 71.3638C163.695 73.3378 164.532 75.4302 165.099 77.5775C165.24 78.1207 165.381 78.6681 165.474 79.2218C165.607 80.0038 165.402 80.6104 165.291 81.3607C165.152 82.3117 165.101 83.2755 164.953 84.2287C164.854 84.8606 164.319 85.1713 163.758 85.1882C163.969 86.7966 164.121 88.4155 164.266 90.0218C164.471 92.3171 164.61 94.6187 164.73 96.9203C165.35 97.8227 166.617 98.5371 167.532 98.7844C168.799 99.1247 170.127 98.7548 171.324 98.3215C172.077 98.0489 172.695 98.9978 172.328 99.6319C171.175 101.623 168.708 101.614 166.84 100.733C166.05 100.361 165.356 99.8221 164.842 99.1204C164.873 99.7883 164.907 100.456 164.941 101.126L164.972 101.733C165.352 108.82 166.172 116.151 164.844 123.168C162.544 135.323 152.51 144.578 140.254 145.296C133.822 145.673 128.466 143.769 125.802 142.707C123.139 141.644 124.174 139.478 126.023 140.097C129.208 141.164 135.059 142.753 140.296 142.067C152.637 140.449 163.102 134.265 162.027 107.632C161.875 103.855 161.405 100.076 161.304 96.2989C161.207 92.6066 161.243 88.9122 161.081 85.222L161.026 83.963C160.963 82.4918 160.895 81.0138 160.785 79.5409C160.653 78.9703 160.543 78.3912 160.381 77.8311C159.94 76.3073 159.365 74.8257 158.65 73.4118C158.492 73.5323 158.315 73.6189 158.123 73.6527C156.666 73.9148 155.3 73.8408 153.936 73.2321C153.299 72.951 152.738 72.577 152.216 72.1141C151.967 71.8964 151.8 71.6851 151.67 71.4652C151.01 71.4758 150.35 71.2771 149.937 70.8016C149.465 70.2596 149.387 69.6998 149.571 69.1815L149.591 69.1298L149.544 69.1129C148.988 70.5564 147.879 71.8267 146.663 72.6847C144.74 74.0458 142.334 74.4389 140.028 74.4749C137.481 74.5129 134.795 74.1198 132.282 73.7182C131.618 73.6126 130.958 73.4921 130.311 73.3294C130.286 73.3547 130.261 73.3843 130.233 73.4097C128.076 75.4788 125.043 76.0114 122.306 74.8299C120.725 74.1473 119.399 73.0483 118.227 71.7886C118.21 72.448 118.176 73.1074 118.119 73.7605L118.096 74.0198C117.979 75.2362 117.754 76.5264 116.838 77.4042C115.355 78.8266 113.205 78.2559 111.495 77.3302C111.497 77.3746 111.497 77.4211 111.497 77.4676C111.959 79.04 112.423 80.6146 112.887 82.1892L112.987 82.5246C113.324 83.6426 113.694 84.7621 113.795 85.9322C113.989 88.1683 112.505 90.3769 110.026 89.6266C108.725 89.2344 107.684 88.1382 106.684 87.2602L106.054 86.7142C107.684 92.055 108.814 97.586 108.919 103.159C108.925 103.462 108.666 103.69 108.379 103.7C107.709 103.728 106.988 103.595 106.313 103.326C106.275 103.324 106.237 103.322 106.197 103.316C105.046 103.149 103.977 102.732 103.035 102.117C103.252 102.808 103.349 103.55 103.292 104.326C103.277 104.514 102.984 104.58 102.942 104.372C102.398 101.69 99.2676 99.6636 96.5691 100.177C93.6724 100.729 91.5389 103.227 91.0161 106.07C90.4553 109.124 91.5284 112.655 93.5164 115.012C94.4314 116.098 95.6352 117.005 97.0645 117.233C97.7181 117.337 98.3969 117.301 99.0315 117.115C99.3014 117.034 99.5544 116.922 99.8116 116.817C100.187 116.665 100.625 116.641 100.98 116.481C101.783 116.119 102.59 116.861 102.183 117.688C101.829 118.408 101.511 118.894 100.923 119.266C101.399 119.85 101.831 120.661 101.991 120.879C102.809 121.986 103.64 123.033 104.572 124.045C105.521 125.072 106.556 126.011 107.65 126.879L108.11 127.243C109.164 128.081 110.081 128.858 110.825 130.06C111.411 131.009 110.652 132.296 109.554 132.281C106.117 132.233 103.619 129.206 101.84 126.562C101.587 126.184 101.348 125.784 101.127 125.374C101.047 125.503 100.958 125.624 100.859 125.734L101.055 126.262C101.637 127.818 99.1306 128.834 98.4033 127.382C97.8741 126.33 97.2606 125.328 96.5776 124.381C96.1749 124.324 95.7806 124.079 95.5614 123.762C95.0069 122.957 94.385 122.143 93.8601 121.285C93.5691 121.008 93.2698 120.742 92.9641 120.482C92.8755 120.56 92.7849 120.638 92.6984 120.72C92.3147 121.598 91.8404 122.399 91.2522 123.153L91.1261 123.314C89.9993 124.738 88.5315 126.195 86.7153 126.543C86.1608 126.649 85.6275 125.958 86.1187 125.516C87.3899 124.37 88.8931 123.591 90.0653 122.312C90.6428 121.682 91.173 120.988 91.629 120.261L91.7329 120.093C91.8088 119.968 91.8868 119.843 91.9669 119.717C91.4377 119.355 90.9086 118.992 90.3794 118.628C88.9227 119.876 87.0257 120.446 85.4145 121.48L85.2543 121.585C83.7975 122.561 82.2627 120.401 83.4307 119.216C84.7182 117.913 85.793 116.361 86.9335 114.913C86.3972 113.923 86.1433 112.752 86.0483 111.568C86.0107 111.233 85.9814 110.898 85.9521 110.563C85.1341 110.576 84.3119 110.295 83.6162 109.811L83.3527 109.622C82.5073 109.893 81.6197 110.024 80.7701 110.001C78.7715 109.942 77.9535 107.653 79.2037 106.205C80.4792 104.725 82.7118 104.402 84.4806 105.121C84.5375 105.091 84.5965 105.059 84.6535 105.028C84.5691 104.639 84.5879 104.286 84.6838 103.976L84.656 103.787C84.267 103.189 84.0113 102.506 83.9143 101.784C83.8376 101.212 83.8532 100.646 83.9852 100.081C84.029 99.8933 84.1203 99.6987 84.1901 99.5028C84.0463 99.1388 83.9618 98.7626 83.9356 98.3843C83.8954 98.3363 83.8553 98.2871 83.8173 98.2338C82.9397 96.9985 83.117 95.5099 83.9523 94.5102C83.9561 94.4466 83.962 94.383 83.9706 94.3198C83.9217 94.2095 83.8768 94.0981 83.8359 93.9855C83.0198 93.1601 82.4207 92.167 82.5324 90.9363C82.598 90.2122 82.8948 89.5604 83.3441 89.0733C83.2644 88.837 83.2568 88.5633 83.3533 88.3348C82.6363 86.4229 82.727 84.1203 83.2431 81.982C83.1292 81.6566 83.0702 81.3036 83.0828 80.9295C83.1419 79.3423 84.5122 77.884 86.1355 77.903C86.331 77.9047 86.514 77.9302 86.6898 77.9676L86.6921 77.9298C86.7543 77.4534 86.885 77.0132 87.0758 76.6182C86.982 76.5842 86.8951 76.5353 86.819 76.4704C85.7788 77.0267 84.6781 77.452 83.5241 77.7417C82.6755 77.9548 81.8063 76.9878 82.3338 76.1893C82.5786 75.8189 82.8486 75.4862 83.1396 75.1823C82.7259 75.1846 82.306 75.2127 81.8812 75.2674C81.118 75.3668 80.2663 74.8447 79.7708 74.1388C79.1552 74.7391 78.5375 75.3372 77.9198 75.9353C76.3555 77.4549 73.9922 76.3369 73.7455 74.3333C73.2796 74.2086 72.8453 73.9972 72.4637 73.695C69.9971 74.7687 67.3429 75.3583 64.6296 75.4703C62.6816 75.5507 61.5432 73.2765 62.4539 71.6703C63.0653 70.5924 63.8243 69.6244 64.6992 68.7832C63.3415 69.1996 61.9395 69.4997 60.508 69.692C59.7343 69.7956 58.6402 69.1531 58.3302 68.4408C57.1454 65.7017 57.2466 62.8464 58.6106 60.1813C58.6633 60.0756 58.7224 59.9741 58.7793 59.8727C58.9206 59.5197 59.0745 59.171 59.241 58.8286C57.5629 57.0744 57.4174 54.4663 58.3218 52.2831C57.9592 51.6934 57.8201 50.9833 58.0667 50.3408C58.7688 48.4915 59.7807 46.7838 61.0583 45.317C60.936 45.0803 60.8285 44.8288 60.7378 44.5582C60.0189 42.3708 60.8517 39.731 62.5319 38.2072C63.5881 37.2476 64.8025 36.6728 66.099 36.305C66.6451 35.337 67.3471 34.4642 68.1651 33.7287C68.1967 33.6589 68.2283 33.5892 68.2642 33.5194C69.5375 31.1143 71.8566 29.825 74.3422 29.527C74.4391 28.5865 75.0716 27.6883 75.9908 27.3966C76.2438 26.5829 76.6212 25.8051 77.1398 25.0992C77.9557 23.9875 79.3112 23.4634 80.5888 24.1925C81.2888 24.592 81.9592 25.0506 82.5874 25.5579C82.8696 25.4252 83.1895 25.3394 83.5504 25.312L83.6415 25.3063L85.7202 25.2007C86.5909 24.8139 87.4595 24.4081 88.3302 24.0129C88.853 23.5796 89.437 23.2182 90.0737 22.9498C90.7947 22.6476 91.5326 22.4764 92.2726 22.4193C92.8734 22.2227 93.4785 22.0494 94.0941 21.9142C95.5403 21.5972 97.054 21.4196 98.5551 21.4344C98.5858 21.0449 98.601 20.6508 98.5981 20.252L98.5951 20.0522C98.5614 18.7735 99.5797 17.7527 100.779 17.5709ZM99.3225 119.875C99.1159 119.919 98.9072 119.955 98.6985 119.981C98.7617 120.137 98.8249 120.294 98.8861 120.45C99.0547 120.545 99.2255 120.636 99.3963 120.72C99.3457 120.433 99.3162 120.143 99.3225 119.875ZM88.4912 116.648L88.351 116.907C88.3283 116.949 88.306 116.991 88.284 117.032C88.5812 117.009 88.8806 117.015 89.1757 117.049L89.1749 117.018C89.137 117.005 89.099 116.993 89.0627 116.975C88.8591 116.877 88.6698 116.767 88.4912 116.648ZM94.3451 104.844C96.2103 104.953 97.7906 105.239 99.4869 106.057L99.6326 106.129C101.131 106.875 103.611 108.253 103.402 110.229C103.343 110.791 102.936 111.383 102.295 111.339C100.539 111.218 99.5356 109.443 98.3465 108.335C97.147 107.219 95.6733 106.072 94.2208 105.305C94.0154 105.197 94.0963 104.855 94.3197 104.844L94.3451 104.844ZM85.8867 78.8075C85.4397 78.8223 85.5894 79.2577 85.8192 78.8942C85.8382 78.8646 85.8614 78.835 85.8867 78.8075ZM110.012 49.7422C105.779 49.8538 101.519 52.3594 98.3484 54.892C95.5898 57.0953 93.2078 59.7161 91.0985 62.5408C90.5558 63.9475 90.0899 65.3836 89.6963 66.8303C89.437 67.7856 89.2747 68.7515 89.0575 69.7153L88.9901 70.0107C88.8195 70.3303 88.6928 70.6742 88.6005 71.0294C88.9848 71.4158 89.4834 71.6924 90.0324 71.8237C90.2092 71.866 90.3562 71.9575 90.4724 72.0788C90.9142 71.3395 91.3005 70.5592 91.5252 69.732L91.5334 69.6937C92.3828 68.299 93.3054 66.9476 94.2943 65.6425C97.0224 62.039 100.027 58.7546 103.638 56.0219C106.377 53.9507 109.438 52.3275 112.693 51.2728C111.896 50.6284 110.991 50.1187 110.012 49.7422Z" fill="black"/>
<path fill-rule="evenodd" clip-rule="evenodd" d="M143.152 128.274C141.732 127.695 140.465 126.728 139.538 125.493C139.216 125.063 139.133 124.61 139.2 124.195C139.276 123.729 139.552 123.306 139.928 123.023C140.305 122.739 140.777 122.598 141.233 122.67C141.63 122.732 142.024 122.949 142.337 123.399L142.402 123.489C142.953 124.235 143.67 124.846 144.488 125.241C145.276 125.621 146.158 125.798 147.07 125.695C148.807 125.499 150.005 124.559 151.278 123.282C151.436 123.121 151.593 122.955 151.752 122.786C151.852 122.633 151.991 122.534 152.146 122.483C152.317 122.425 152.511 122.429 152.689 122.491C152.86 122.55 153.013 122.664 153.116 122.815C153.213 122.958 153.268 123.135 153.251 123.339C153.134 124.661 152.443 125.842 151.461 126.769C150.37 127.799 148.924 128.511 147.563 128.761C146.064 129.036 144.536 128.839 143.152 128.274ZM148.271 107.866C149.866 108.836 152.297 111.098 150.58 113.503C148.56 115.624 145.652 113.193 144.218 112.093C142.889 111.241 141.396 113.433 142.629 114.428C152.986 122.099 157.189 108.12 149.077 106.726C148.184 106.572 147.853 107.566 148.271 107.866ZM129.711 98.9429C129.887 96.7541 133.219 96.257 133.551 98.423C133.847 100.363 133.498 102.145 132.624 103.892C131.79 105.561 129.692 104.783 129.533 103.263C129.32 101.226 129.601 100.304 129.711 98.9429ZM155.076 97.9738C155.541 97.3652 156.212 96.9496 157.015 97.1845C159.526 97.9185 158.786 101.485 157.904 103.22C157.425 104.163 155.876 104.402 155.176 103.572C154.035 102.219 153.489 99.5156 154.939 98.1825C154.979 98.1136 155.023 98.044 155.076 97.9738ZM132.589 89.3654L132.986 89.2959C134.213 89.0836 135.738 88.8796 136.606 89.8665C137.067 90.3898 137.225 91.3624 136.606 91.8633C135.518 92.7446 134.314 92.4031 133.01 92.4777C131.935 92.5394 130.902 92.7174 129.867 93.0135C127.595 93.663 125.744 94.8486 123.804 96.1506C123.55 96.3213 123.29 95.9956 123.411 95.7574C124.531 93.563 126.701 91.7604 128.875 90.6616C130.036 90.0751 131.305 89.5885 132.589 89.3654ZM152.787 88.3823L153.091 88.4445C156.394 89.1353 160.687 90.5153 162.251 93.7615C162.311 94.2205 162.248 94.3189 162.196 94.3832L162.179 94.4046C162.137 94.4595 162.103 94.5351 161.905 94.5976C161.849 94.5844 161.794 94.5705 161.737 94.5557C161.02 94.3677 160.453 94.1087 159.904 93.84L159.308 93.5465C158.617 93.2076 157.92 92.881 157.181 92.6399C155.605 92.1254 153.983 91.7631 152.336 91.5696C151.98 91.5277 151.636 91.4072 151.365 91.2006C151.107 91.0046 150.911 90.7332 150.821 90.3724C150.705 89.9056 150.738 89.5521 150.989 89.1309C151.177 88.8146 151.446 88.5953 151.756 88.4694C152.071 88.3411 152.43 88.3108 152.787 88.3823Z" fill="black"/>
<path fill-rule="evenodd" clip-rule="evenodd" d="M152.745 131.525C150.778 129.772 148.572 126.247 145.746 129.036C145.047 129.824 144.764 131.591 143.695 131.938C142.275 132.398 140.868 130.896 140.384 129.742C138.404 123.33 146.588 121.571 151.249 122.607C153.527 123.543 155.204 127.309 155.306 129.275C155.371 130.595 154.254 132.538 152.745 131.525ZM167.589 121.643C167.57 121.558 167.543 121.481 167.511 121.411C166.64 121.082 165.952 121.417 165.526 122.044C165.54 122.2 165.587 122.358 165.616 122.512C165.288 123.204 164.992 124.06 164.547 124.658C164.459 124.665 164.368 124.656 164.28 124.63C156.904 125.401 160.505 117.681 153.024 115.763C147.241 114.809 136.789 115.902 134.061 121.923C131.909 131.542 120.969 124.84 117.377 119.838C113.545 115.285 111.066 109.723 108.677 104.325C108.172 103.182 106.596 103.999 106.768 105.095C104.559 109.528 104.632 114.851 104.085 119.707C103.155 129.394 102.249 142.979 111.246 148.894C122.968 162.15 152.241 166.827 165.762 154.648C170.442 144.581 169.865 132.301 167.589 121.643Z" fill="black"/>
<path fill-rule="evenodd" clip-rule="evenodd" d="M166.085 109.758C164.662 111.67 162.025 112.279 159.593 112.068C154.347 111.563 152.696 105.603 152.524 100.97C156.042 101.96 152.226 94.949 164.252 94.178C168.491 93.8246 167.322 96.3858 169.195 98.2571C169.156 102.184 168.503 106.452 166.085 109.758ZM141.098 105.245C138.001 119.755 121.041 116.304 119.259 103.224C120.904 102.063 120.471 99.1943 122.515 98.1551C125.754 96.0847 129.803 96.1732 133.481 96.2219C138.183 96.545 139.523 98.4935 141.938 100.619C141.822 102.039 141.487 103.722 141.098 105.245ZM172.803 91.775C172.629 91.7461 172.455 91.7188 172.281 91.6932C172.145 91.6161 171.986 91.5567 171.8 91.521C171.377 91.4134 170.956 91.3409 170.536 91.3018C164.508 89.9447 150.563 91.8716 149.988 97.0176C148.068 97.6586 146.407 97.0846 144.182 97.1416C142.489 90.0603 113.211 91.0598 111.803 95.3291C111.797 95.3276 111.792 95.3263 111.786 95.3246C110.434 94.9057 108.439 95.0068 106.89 94.9404C103.584 94.8711 100.273 95.1659 97.0383 95.8636C90.9802 96.8267 82.7122 97.9543 86.9255 105.522C86.9264 105.524 86.927 105.525 86.9281 105.526L86.9287 105.526C87.6548 106.27 88.8872 105.671 88.933 104.663C87.5165 101.077 90.7159 100.647 93.1776 99.6165C99.3029 97.4151 105.539 97.1099 111.874 97.7909C112.351 98.3522 113.074 98.8417 113.838 99.0979C118.074 99.8013 115.842 102.944 118.519 103.402C118.027 114.358 131.325 120.339 139.029 113.137C142.106 110.128 142.839 105.671 143.552 101.653C143.929 101.568 144.169 101.362 144.309 101.089C145.216 100.183 145.786 99.3466 147.579 99.0979C149.373 98.8493 150.754 99.3483 150.94 99.5011C150.987 99.596 151.038 99.6911 151.097 99.7862C151.179 99.9281 151.29 100.041 151.417 100.13C149.646 111.041 158.113 117.941 166.661 112.282C170.375 108.787 171.159 103.436 171.315 98.66C171.818 98.356 172.137 97.767 171.962 97.0264C171.722 96.0056 172.286 95.1217 173.183 94.6779C174.348 94.1016 174.142 91.9967 172.803 91.775Z" fill="black"/>
</svg>