<svg xmlns="http://www.w3.org/2000/svg" fill="none" viewBox="40.77 51.15 152.48 231.48">
<path fill-rule="evenodd" clip-rule="evenodd" d="M189.444 219.876C188.032 215.534 189.714 210.519 188.615 205.838C188.238 203.986 187.521 197.108 186.802 193.085C186.4 190.835 188.807 190.137 189.177 189.239C191.78 181.171 172.79 162.193 171.63 161.494C169.893 160.489 168.356 159.625 166.659 158.599C161.708 156.859 155.771 152.019 151.282 155.128C143.505 143.546 146.581 129.277 142.361 127.581C138.141 125.885 125.679 122.457 118.554 126.834C114.284 129.995 114.598 135.437 112.65 139.924C111.506 142.037 110.944 145.097 109.613 146.475C105.089 151.156 99.4474 151.963 93.1406 152.758C92.6603 152.818 92.1549 151.511 91.6881 151.673C81.0495 155.351 68.6705 156.424 56.6223 177.021C54.9208 179.967 50.3306 184.693 51.8654 188.097C41.7525 211.622 31.8017 264.573 59.5506 277.778C60.4376 278.346 66.455 275.302 67.4354 275.331C69.0698 275.378 65.9382 279.347 67.4354 278.64C78.4274 279.474 138.911 277.322 162.095 279.474C178.038 279.355 188.136 282.151 191.817 279.355C190.345 275.797 190.413 271.986 190.879 268.225C194.267 265.703 190.078 247.928 190.433 242.723C193.604 238.919 191.079 224.655 189.444 219.876Z" fill="#D08B5B"/>
<path fill-rule="evenodd" clip-rule="evenodd" d="M92.5189 152.723L92.4168 152.789C92.3999 152.8 92.3833 152.811 92.3674 152.823C92.2588 152.905 92.2759 153.052 92.4039 153.102C92.5742 153.168 92.7532 153.219 92.9374 153.258C93.4968 154.07 93.9339 155.074 94.2392 155.582C95.1162 157.043 102.644 166.231 103.769 167.412C105.598 169.33 114.6 176.543 114.722 176.399C116.17 177.264 117.671 178.041 119.229 178.703C128.453 182.624 140.282 182.98 148.209 176.467C148.799 176.628 154.403 168.557 155.269 165.665C155.692 165.783 156.215 162.684 155.923 162.731C156.178 160.979 153.108 154.687 152.817 154.386C152.861 154.372 152.905 154.359 152.949 154.346C152.974 154.402 153.033 154.443 153.101 154.426C153.687 154.273 154.28 154.192 154.873 154.204C155.324 154.213 158.542 155.68 158.667 155.741C158.744 155.777 158.821 155.814 158.899 155.852C184.648 168.235 188.617 188.358 189.507 188.313C189.132 188.788 178.958 203.179 178.411 204.451C178.297 201.701 180.177 275.014 180.309 276.545C180.363 277.176 180.367 278.666 180.456 279.266C179.809 279.302 157.166 277.755 115.06 278.009C101.614 278.09 68.3817 279.553 68.3817 279.553L68.3708 279.461C68.2756 278.564 68.3584 276.823 68.3452 275.928C69.6215 275.191 70.8741 274.407 72.1121 273.637C74.9309 271.883 92.3239 255.945 105.107 241.685C112.685 233.232 122.138 227.542 122.65 226.989C122.66 226.978 122.665 226.966 122.672 226.954C122.699 226.974 122.732 226.992 122.774 226.986C128.662 226.145 137.447 227.956 143.915 224.607C146.802 223.111 156.6 212.932 159.487 210.119C159.574 210.034 159.636 209.945 159.68 209.854C161.605 208.681 169.109 202.731 169.64 201.996L169.798 201.775C170.384 200.944 171.266 200.068 170.244 199.27C169.167 198.429 167.102 199.439 165.966 199.923L165.808 199.99C165.255 200.217 164.713 200.464 164.179 200.726C163.505 198.837 161.861 198.798 160.089 199.059C158.826 199.245 157.6 199.677 156.369 200.006C154.807 200.424 153.237 200.817 151.662 201.186C148.826 201.85 145.548 203.065 142.679 203.568C142.603 203.48 142.498 203.41 142.357 203.375C141.375 203.129 140.291 203.317 139.283 203.336C138.42 203.352 137.556 203.354 136.693 203.341L136.175 203.332C134.324 203.295 131.841 202.434 129.99 202.402L129.88 202.334L129.77 202.264C129.293 201.956 128.775 201.544 128.634 201.024C128.616 200.96 130.508 196.604 130.536 193.079C130.551 191.119 129.879 189.285 129.718 188.313C129.327 185.939 128.451 187.468 127.183 189.792C125.915 192.117 124.225 194.231 122.958 195.922C121.324 198.101 119.721 198.759 118.888 200.022C118.747 200.237 118.609 200.457 118.473 200.684C118.147 200.359 115.401 206.832 115.881 208.079C115.546 207.968 102.042 225.299 72.6761 237.769C72.8632 236.603 77.9577 205.855 76.6901 200.783C75.4225 195.71 58.6586 176.963 56.9154 176.547C57.0899 176.262 50.2817 180.916 62.5352 168.869C74.7887 156.822 82.954 154.782 89.0543 152.543C89.3957 152.437 89.7355 152.33 90.0737 152.221C89.9883 152.372 90.182 152.539 90.3308 152.416C91.1741 151.719 91.9062 152.046 92.5189 152.723Z" fill="#78E185"/>
<path fill-rule="evenodd" clip-rule="evenodd" d="M184.39 193.84C182.869 196.053 181.472 198.331 180.208 200.701C179.557 201.923 178.949 203.17 178.403 204.442C178.289 201.691 178.264 198.909 177.943 196.186C177.92 195.989 177.592 195.894 177.557 196.133C177.203 198.603 177.144 201.136 177.01 203.631C176.855 203.584 176.685 203.557 176.497 203.557C174.671 203.557 172.873 203.706 171.055 203.854C170.24 203.92 169.387 203.97 168.556 204.1C169.225 203.361 169.848 202.58 170.423 201.765C171.01 200.935 171.68 199.636 170.658 198.838C169.529 197.957 167.314 199.11 166.222 199.558C165.669 199.785 165.127 200.032 164.593 200.295C163.919 198.405 161.852 198.155 160.081 198.415C158.818 198.602 157.592 199.034 156.361 199.363C154.798 199.781 153.229 200.174 151.654 200.543C148.818 201.207 145.962 201.787 143.093 202.29C143.017 202.202 142.912 202.133 142.771 202.098C141.789 201.852 140.705 202.04 139.697 202.059C138.661 202.078 137.625 202.076 136.589 202.055C134.738 202.017 132.889 202.002 131.038 201.97C130.512 201.651 129.845 201.193 129.682 200.593C129.478 199.843 130.115 199.013 130.41 198.376C131.545 195.926 131.942 193.186 131.497 190.518C131.418 190.043 131.254 189.523 131.018 189.036C133.045 189.253 135.047 189.4 137.085 189.467C141.156 189.599 145.226 189.738 149.298 189.768C157.441 189.829 165.583 189.829 173.726 189.77C178.33 189.736 182.923 189.694 187.521 189.459C187.147 189.934 186.782 190.419 186.426 190.912C186.353 190.89 186.257 190.93 186.268 191.021C186.272 191.053 186.275 191.085 186.279 191.116C185.63 192.023 185.005 192.945 184.39 193.84M175.336 278.056C173.444 277.996 171.552 277.936 169.66 277.875C165.946 277.757 162.231 277.639 158.518 277.521C151.16 277.286 143.802 277.06 136.443 276.857C129.102 276.655 121.757 276.441 114.414 276.67C107.054 276.899 99.7132 277.493 92.367 277.97C88.2829 278.235 84.196 278.465 80.1043 278.575C76.2075 278.679 72.2763 278.521 68.3855 278.799C68.2548 277.837 68.3509 276.877 68.3367 275.919C69.613 275.181 70.8656 274.398 72.1036 273.627C76.6172 270.819 80.8835 267.642 84.9077 264.169C85.5263 263.635 86.1329 263.09 86.7333 262.539C86.3154 263.452 86.6498 264.63 87.8475 265.016C89.308 265.488 90.8034 265.32 92.3203 265.285C93.8606 265.248 95.401 265.214 96.9415 265.181C99.9523 265.118 102.963 265.06 105.974 265.01C111.856 264.911 117.739 264.838 123.621 264.791C135.456 264.695 147.283 264.856 159.117 265.07C162.444 265.13 165.768 265.205 169.096 265.129C170.761 265.092 172.432 265.08 174.095 264.99C175.427 264.918 176.768 264.729 178.1 264.56C178.268 266.881 178.443 269.201 178.639 271.52C178.768 273.051 178.901 274.582 179.033 276.113C179.087 276.744 179.091 277.389 179.18 277.989C177.901 278.059 176.63 278.097 175.336 278.056M176.637 212.521C176.591 214.298 176.566 216.075 176.553 217.853C176.4 217.765 176.227 217.701 176.032 217.671C173.962 217.355 171.748 217.595 169.654 217.63C167.631 217.664 165.6 217.653 163.578 217.748C161.552 217.844 159.527 217.958 157.502 218.063C156.552 218.113 155.612 218.155 154.669 218.284C154.023 218.372 153.196 218.366 152.506 218.55C155.402 215.745 158.281 212.923 161.169 210.11C161.255 210.025 161.318 209.936 161.362 209.845C163.287 208.671 165.135 207.351 166.809 205.838C168.136 206.35 169.647 206.414 171.055 206.529C172.874 206.676 174.671 206.826 176.497 206.826C176.62 206.826 176.736 206.814 176.844 206.792C176.755 208.701 176.687 210.61 176.637 212.521M101.458 247.032C105.879 248.444 110.668 248.428 115.266 248.711C120.169 249.013 125.064 249.263 129.972 249.455C139.775 249.836 149.571 250.353 159.372 250.765C164.971 251 170.568 251.26 176.164 251.542C176.561 251.562 176.939 251.46 177.273 251.273C177.461 254.96 177.681 258.645 177.938 262.328C177.969 262.788 178.005 263.248 178.038 263.709C175.404 263.379 172.79 263.062 170.136 262.838C167.157 262.586 164.179 262.374 161.195 262.176C155.38 261.791 149.556 261.274 143.731 261.086C131.856 260.702 119.954 260.833 108.075 260.917C104.714 260.941 101.353 260.973 97.9917 261.014C96.3113 261.035 94.6309 261.057 92.9505 261.081C91.2616 261.106 89.4466 260.93 87.8475 261.52C87.8323 261.526 87.8194 261.534 87.8044 261.539C92.6287 256.967 96.9506 251.913 101.458 247.032M116.997 232.413C124.385 233.758 131.888 233.666 139.376 233.799C147.038 233.936 154.711 233.845 162.374 233.861C166.727 233.87 171.118 234.061 175.455 233.674C175.968 233.628 176.365 233.434 176.648 233.158C176.727 237.773 176.872 242.386 177.072 246.998C176.79 246.878 176.483 246.805 176.164 246.786C166.371 246.21 156.579 245.687 146.774 245.368C136.978 245.048 127.169 244.67 117.368 244.788C112.584 244.846 107.526 244.54 102.808 245.583C104.601 243.677 106.433 241.807 108.348 240.016C111.141 237.405 114.121 234.959 116.997 232.413M122.641 226.98C122.651 226.969 122.656 226.956 122.664 226.945C122.69 226.964 122.723 226.978 122.765 226.977C129.681 226.821 137.439 229.004 143.906 225.654C146.794 224.159 149.185 221.796 151.506 219.525C151.507 219.541 151.509 219.558 151.51 219.575C151.525 219.759 151.603 219.981 151.79 220.063C152.553 220.398 153.446 220.42 154.265 220.539C155.207 220.676 156.133 220.756 157.083 220.814C159.178 220.939 161.273 221.072 163.369 221.191C165.46 221.309 167.56 221.319 169.654 221.371C171.754 221.423 173.953 221.678 176.032 221.378C176.222 221.351 176.392 221.291 176.543 221.207C176.546 223.897 176.57 226.586 176.596 229.274C176.6 229.712 176.608 230.15 176.613 230.588C176.333 230.331 175.947 230.151 175.455 230.107C171.601 229.768 167.718 229.919 163.851 229.932C160.053 229.945 156.255 229.957 152.457 229.97C144.789 229.995 137.127 230.07 129.46 230.216C125.731 230.287 122.019 230.601 118.345 231.205C119.833 229.849 121.279 228.453 122.641 226.98M62.556 275.879C61.1403 276.312 59.735 276.124 58.3165 276.421C58.2293 276.439 58.1488 276.473 58.0751 276.518C53.8273 274.702 50.9959 271.059 49.0582 266.976C47.0156 262.673 45.6077 258.073 44.6646 253.41C42.7201 243.796 42.7167 233.828 43.7232 224.102C44.7122 214.547 46.6702 205.043 49.4644 195.854C51.3829 189.544 53.8279 183.17 57.2228 177.417C61.1429 180.044 64.183 183.827 67.047 187.525C70.4693 191.944 73.5534 196.621 76.314 201.48C76.0286 202.312 75.9842 203.356 75.8473 204.1C75.5834 205.535 75.3451 206.987 75.1577 208.434C74.7574 211.527 74.3733 214.621 73.9641 217.713C73.1547 223.826 72.1884 229.922 71.1208 235.995C71.0344 236.487 71.1726 236.903 71.4267 237.216C69.3094 238.332 67.2198 239.498 65.1838 240.762C60.7077 243.54 56.5244 246.777 53.24 250.929C53.1546 251.036 53.2884 251.181 53.394 251.083C60.4372 244.572 69.1875 240.485 77.7787 236.445C82.1691 234.381 86.5379 232.283 90.7501 229.87C95.1551 227.346 99.3559 224.494 103.382 221.403C107.98 217.874 112.308 214.016 116.365 209.876C116.843 209.388 116.727 208.778 116.367 208.392C116.489 208.354 116.587 208.248 116.593 208.072C116.69 205.369 117.502 203.066 119.091 200.878C120.564 198.848 122.443 197.175 124.137 195.338C124.89 194.522 125.61 193.672 126.252 192.765C126.914 191.831 127.317 190.801 127.892 189.825C128.565 188.685 129.137 189.268 129.448 190.299C129.802 191.469 129.78 192.838 129.638 194.041C129.488 195.313 129.1 196.553 128.543 197.703C128.019 198.784 127.415 199.882 127.767 201.121C128.347 203.155 130.831 204.333 132.714 204.792C134.809 205.302 137.002 205.203 139.124 204.938C141.782 204.607 144.427 204.121 147.054 203.605C150.096 203.008 153.121 202.318 156.122 201.539C157.532 201.173 158.933 200.691 160.357 200.388C160.865 200.28 161.805 200.117 162.402 200.382C154.73 204.957 146.365 208.005 137.87 210.662C136.815 210.991 137.248 212.586 138.328 212.322C147.454 210.089 156.041 205.946 164.212 201.409C164.337 201.339 164.443 201.231 164.521 201.104C165.343 200.815 166.179 200.563 167.031 200.356C167.412 200.264 169.372 199.617 169.617 199.865C169.964 200.217 168.763 201.36 168.463 201.692C166.327 204.059 163.787 205.99 161.038 207.587C158.249 209.206 155.281 210.498 152.3 211.716C148.96 213.081 145.43 214.154 142.184 215.723C140.894 216.346 141.799 218.463 143.158 218.034C144.909 217.48 146.61 216.667 148.311 215.976C149.757 215.389 151.203 214.802 152.64 214.196C153.642 213.772 154.637 213.335 155.623 212.878C154.146 214.268 152.67 215.658 151.194 217.048C148.637 219.456 146.209 222.199 143.083 223.887C139.996 225.556 136.474 225.75 133.037 225.714C131.312 225.696 129.594 225.641 127.868 225.711C126.053 225.784 124.44 226.063 122.719 226.635C122.687 226.645 122.664 226.664 122.645 226.686C122.585 226.612 122.483 226.576 122.377 226.638C117.701 229.404 113.439 232.992 109.34 236.538C105.115 240.192 101.139 244.079 97.3516 248.184C93.726 252.114 90.1294 256.058 86.1842 259.673C82.3322 263.203 78.2156 266.409 73.9172 269.375C71.5751 270.992 69.1751 272.548 66.6918 273.94C65.3648 274.683 64.0172 275.432 62.556 275.879M62.9492 169.486C64.6237 167.604 66.426 165.86 68.3332 164.247C69.1746 164.496 70.0579 164.566 70.948 164.575C72.3063 164.588 73.6675 164.645 75.0257 164.631C77.641 164.604 80.2552 164.521 82.8711 164.507C88.2198 164.478 93.5701 164.477 98.9188 164.523C99.6196 164.529 100.125 164.23 100.437 163.794C101.52 165.022 102.636 166.222 103.761 167.402C105.589 169.321 107.538 171.151 109.613 172.818C109.209 172.821 108.805 172.825 108.403 172.822C106.553 172.81 104.703 172.798 102.853 172.788C99.1406 172.767 95.428 172.752 91.7154 172.742C84.3346 172.723 76.9307 172.784 69.5594 173.163C67.5134 173.267 65.4515 173.31 63.4127 173.509C62.307 173.618 61.2024 173.744 60.0977 173.861C59.8717 173.886 59.6549 173.916 59.4422 173.95C60.5241 172.395 61.6894 170.901 62.9492 169.486M92.5104 152.714C92.4606 152.748 92.4067 152.778 92.3589 152.814C92.2503 152.895 92.2675 153.043 92.3955 153.092C92.5658 153.159 92.7447 153.209 92.9289 153.249C93.4884 154.061 93.9255 155.064 94.2308 155.573C95.1077 157.034 96.1161 158.426 97.142 159.785C97.3482 160.058 97.5584 160.328 97.7695 160.597C92.8015 160.585 87.8361 160.611 82.8711 160.799C80.2571 160.898 77.6342 160.981 75.0257 161.177C73.9531 161.258 72.8811 161.393 71.8119 161.527C77.3767 157.503 83.6348 154.43 90.118 152.149C90.1091 152.159 90.1001 152.166 90.0912 152.176C89.9484 152.335 90.1615 152.54 90.3223 152.407C91.1657 151.71 91.8977 152.037 92.5104 152.714M117.612 200.013C117.471 200.227 117.332 200.448 117.197 200.675C116.871 200.35 116.416 200.132 115.83 200.114C109.322 199.911 102.817 199.734 96.3052 199.729C93.0939 199.727 89.8535 199.619 86.6463 199.778C85.0358 199.858 83.4259 199.953 81.8163 200.044C80.6908 200.108 79.4953 200.187 78.3963 200.513C75.8634 196.081 73.0516 191.82 69.981 187.746C76.9478 188.601 84.0339 188.51 91.0402 188.747C98.9782 189.016 106.921 189.074 114.861 189.262C117.039 189.314 119.218 189.371 121.395 189.431C122.519 189.463 123.643 189.495 124.768 189.529C125.119 189.54 125.483 189.55 125.847 189.54C125.819 189.597 125.791 189.654 125.764 189.71C125.151 190.977 124.38 192.142 123.482 193.224C121.573 195.524 119.266 197.505 117.612 200.013M109.074 213.665C108.833 212.995 108.246 212.479 107.31 212.522C101.978 212.764 96.6356 212.932 91.3094 213.283C88.7148 213.455 86.1096 213.57 83.5193 213.797C82.1832 213.914 80.8495 214.132 79.5191 214.305C78.6071 214.424 77.6522 214.562 76.7773 214.886C76.947 213.013 77.0965 211.138 77.2265 209.26C77.3306 207.751 77.3623 206.229 77.3543 204.716C77.3503 203.951 77.3243 203.181 77.2873 202.416C77.3659 202.432 77.4447 202.439 77.522 202.43C77.6585 202.413 77.7859 202.397 77.9042 202.365C79.1302 202.845 80.5178 202.951 81.8163 203.044C83.3564 203.154 84.8961 203.27 86.4363 203.38C89.7132 203.614 93.021 203.599 96.3052 203.706C102.77 203.917 109.236 204.04 115.703 204.213C115.403 205.5 115.392 206.823 115.872 208.07C115.538 207.959 115.153 208.01 114.824 208.335C112.962 210.176 111.043 211.951 109.074 213.665M90.2644 227.358C90.1328 226.994 89.8844 226.659 89.5903 226.432C88.4596 225.561 86.3955 226.062 85.0383 226.129C83.4316 226.208 81.8247 226.286 80.218 226.365C79.7304 226.389 77.2417 226.516 75.4138 226.905C75.7915 224.052 76.1342 221.194 76.4405 218.33C76.5048 217.729 76.5644 217.128 76.6233 216.527C77.4844 216.804 78.4203 216.905 79.3085 216.948C80.6395 217.011 81.9766 217.119 83.3089 217.139C85.9706 217.181 88.6472 217.05 91.3094 217.005C96.1034 216.926 100.898 216.697 105.69 216.508C100.879 220.415 95.7952 223.979 90.4924 227.222C90.4167 227.268 90.3401 227.312 90.2644 227.358M75.1224 229.051C75.5274 229.105 75.9291 229.123 76.2363 229.154C77.7785 229.309 79.2967 229.451 80.8467 229.473C82.3837 229.496 83.9205 229.518 85.4574 229.541C85.7843 229.545 86.1111 229.55 86.4379 229.555C82.3909 231.766 78.2196 233.747 74.1073 235.833C74.4696 233.576 74.8079 231.315 75.1224 229.051M119.221 178.694C128.444 182.615 140.274 182.97 148.2 176.457C148.988 176.673 149.859 176.745 150.554 176.814C152.117 176.971 153.665 177.116 155.235 177.165C158.295 177.261 161.358 177.404 164.42 177.442C170.613 177.518 176.807 177.554 183 177.609C183.527 177.614 183.949 177.453 184.269 177.195C184.896 178.259 185.48 179.349 186.012 180.468C186.789 182.099 187.448 183.784 187.988 185.507C187.872 185.487 187.752 185.473 187.623 185.471C179.484 185.33 171.338 185.565 163.197 185.599C155.054 185.633 146.912 185.598 138.77 185.656C136.516 185.672 134.279 185.672 132.032 185.84C130.862 185.927 129.678 185.965 128.52 186.154C128.39 186.174 128.258 186.193 128.125 186.212C126.573 185.304 124.645 185.494 122.871 185.46C120.833 185.422 118.796 185.387 116.758 185.357C112.753 185.298 108.748 185.254 104.743 185.227C96.7941 185.172 88.8646 185.376 80.9207 185.653C76.9683 185.79 73.0309 186.024 69.1294 186.633C68.8674 186.293 68.608 185.953 68.3427 185.616C65.5782 182.111 62.301 177.624 57.752 176.538C57.9265 176.253 58.1036 175.971 58.2834 175.69C61.4351 176.521 64.9119 176.479 68.132 176.653C71.8438 176.854 75.5477 176.992 79.2639 177.084C86.6509 177.265 94.0364 177.379 101.425 177.491C103.475 177.523 105.526 177.555 107.577 177.59C108.683 177.608 109.789 177.629 110.895 177.646C111.513 177.656 112.065 177.654 112.654 177.449C113.199 177.259 113.731 176.974 114.258 176.738C114.442 176.655 114.592 176.533 114.714 176.389C116.162 177.255 117.662 178.031 119.221 178.694M155.261 165.656C156.421 165.978 157.618 166.032 158.845 166.124C160.455 166.246 162.061 166.267 163.675 166.277C166.248 166.294 168.822 166.276 171.395 166.205C172.5 166.174 173.146 165.434 173.337 164.587C173.364 164.609 173.391 164.63 173.418 164.652C176.549 167.232 179.386 170.184 181.79 173.451C176 173.47 170.21 173.473 164.42 173.512C161.359 173.533 158.295 173.659 155.235 173.738C153.734 173.776 152.255 173.901 150.76 174.043C150.73 174.046 150.699 174.048 150.669 174.051C150.827 173.868 150.984 173.683 151.138 173.492C152.925 171.277 154.395 168.547 155.261 165.656M192.906 281.939C193.417 280.533 193.219 279.025 193.19 277.547C193.16 276.029 193.144 274.513 193.139 272.996C193.129 270.03 193.109 267.064 193.076 264.099C193.01 258.099 192.94 252.094 192.704 246.098C192.238 234.244 191.339 222.42 189.873 210.645C189.16 204.921 188.275 199.21 187.074 193.567C187.091 193.544 187.108 193.521 187.125 193.498C188.32 191.9 189.68 190.423 190.855 188.814C190.959 188.671 191.002 188.488 191.001 188.303C191.044 188.282 191.087 188.26 191.131 188.235C192.105 187.68 191.225 186.167 190.251 186.729C190.364 186.665 188.746 182.511 188.574 182.092C187.959 180.59 187.266 179.121 186.485 177.698C186.014 176.839 185.51 175.998 184.982 175.173C184.889 174.557 184.557 173.985 183.985 173.68C182.982 172.242 181.898 170.86 180.743 169.544C176.015 164.154 170.109 159.804 163.656 156.705C162.724 156.257 161.764 155.884 160.808 155.493C159.789 155.076 158.845 154.532 157.841 154.095C156.208 153.384 154.596 153.424 152.992 154.177C152.855 154.242 152.953 154.453 153.093 154.416C154.126 154.147 155.183 154.102 156.219 154.394C157.233 154.681 158.004 155.314 158.89 155.843C160.468 156.784 162.233 157.398 163.85 158.277C165.989 159.44 168.08 160.716 170.079 162.118C168.008 162.228 165.934 162.307 163.86 162.362C162.32 162.403 160.78 162.41 159.242 162.499C158.147 162.563 157.009 162.545 155.914 162.722C156.178 160.908 156.179 159.077 155.849 157.309C155.849 157.309 155.849 157.308 155.849 157.307C155.769 156.882 155.672 156.459 155.554 156.041C155.301 155.152 154.491 155.019 153.902 155.355C153.844 155.312 153.785 155.27 153.729 155.224C153.024 154.652 152.39 153.967 151.839 153.247C150.693 151.752 149.767 150.021 149.066 148.276C148.355 146.509 147.852 144.661 147.359 142.824C147.112 141.903 146.845 140.987 146.593 140.067C146.374 139.267 146.215 138.383 145.813 137.654C145.737 137.518 145.51 137.543 145.474 137.699C145.261 138.612 145.374 139.653 145.413 140.584C145.456 141.617 145.515 142.641 145.653 143.666C145.938 145.794 146.398 147.886 147.134 149.907C147.841 151.844 148.773 153.652 150.039 155.285C150.88 156.369 152.074 157.805 153.458 158.39C153.639 160.425 153.618 162.463 153.137 164.479C152.509 167.117 151.304 169.624 149.65 171.773C146.182 176.277 140.815 178.823 135.217 179.347C129.425 179.89 123.498 178.594 118.293 176.046C112.504 173.211 107.702 168.838 103.388 164.117C100.902 161.396 98.3234 158.719 96.0189 155.84C95.6106 155.33 94.9569 154.294 94.1815 153.361C94.9706 153.354 95.7804 153.236 96.4789 153.146C97.9239 152.961 99.3363 152.674 100.748 152.314C103.389 151.643 106.173 150.708 108.48 149.23C113.361 146.101 115.267 142.132 115.918 136.665C116.124 134.937 113.136 134.517 112.858 136.251C112.431 138.916 111.784 140.213 110.934 142.773C110.116 145.233 108.931 146.15 106.667 147.506C104.541 148.78 102.126 149.52 99.7841 150.284C98.4865 150.708 97.1735 151.094 95.8649 151.483C95.0319 151.731 94.0429 151.948 93.1979 152.33C92.757 151.943 92.297 151.651 91.8339 151.541C91.8679 151.484 91.8238 151.395 91.7384 151.412C91.6024 151.439 91.4667 151.469 91.3307 151.497C91.194 151.507 91.0579 151.534 90.9221 151.583C82.7659 153.35 74.9334 157.112 68.2915 162.238C67.9567 162.378 67.6328 162.549 67.3246 162.766C67.1659 162.877 67.0607 163.054 67.0305 163.237C66.032 164.053 65.0632 164.899 64.127 165.775C56.5877 172.829 51.8108 182.213 48.4666 191.865C45.1723 201.374 42.9424 211.345 41.7162 221.329C40.4661 231.505 40.322 241.893 42.1351 252.012C43.1086 257.445 44.6847 262.785 47.011 267.796C49.1 272.297 52.5003 277.425 57.8412 277.973C57.8583 277.99 57.8744 278.008 57.8936 278.024C59.9891 279.75 63.1091 278.558 65.3 277.527C65.6473 277.363 65.9919 277.191 66.335 277.015C66.1537 277.713 66.072 278.444 66.0341 279.129C65.9553 280.551 67.9605 280.632 68.3401 279.451C71.5905 280.023 74.9469 280.031 78.2344 280.013C81.9077 279.993 85.5798 279.865 89.2489 279.693C96.5287 279.349 103.8 278.824 111.085 278.586C125.835 278.102 140.626 279.135 155.364 279.655C159.499 279.801 163.633 279.946 167.768 280.092C171.992 280.241 176.212 280.27 180.402 280.841C181.943 281.052 182.533 279.541 182.099 278.6C182.207 277.968 182.099 277.275 182.04 276.53C181.929 275.139 181.824 273.747 181.726 272.355C181.535 269.64 181.35 266.924 181.175 264.209C180.819 258.705 180.514 253.198 180.216 247.691C179.625 236.742 179.172 225.785 178.839 214.825C178.758 212.154 178.652 209.481 178.518 206.812C178.677 206.559 178.836 206.305 178.99 206.049C179.502 205.195 180.005 204.335 180.523 203.484C181.564 201.779 182.611 200.085 183.704 198.413C184.649 196.97 185.624 195.548 186.642 194.156C187.906 204.837 189.03 215.527 189.546 226.276C190.114 238.115 190.416 249.971 190.58 261.822C190.625 265.133 190.656 268.444 190.692 271.755C190.71 273.479 190.728 275.202 190.714 276.926C190.7 278.575 190.451 280.379 191.036 281.939C191.377 282.849 192.57 282.865 192.906 281.939Z" fill="#231F20"/>
<path fill-rule="evenodd" clip-rule="evenodd" d="M161.197 73.4597C154.861 64.717 143.194 62.2028 133.077 64.3292C113.298 67.9437 94.4006 83.0715 90.9058 103.645C85.4533 116.092 88.9352 135.696 104.792 137.161C107.05 137.289 109.286 136.768 111.548 137.049C125.35 139.259 141.661 148.721 153.879 137.563C154.492 138.003 155.298 138.215 155.985 137.949C161.186 135.934 161.43 130.106 161.873 125.315C162.446 119.124 162.983 112.93 163.484 106.734C163.663 96.0473 167.888 82.6936 161.197 73.4597V73.4597Z" fill="#D08B5B"/>
<path fill-rule="evenodd" clip-rule="evenodd" d="M122.849 51.1819C131.177 50.738 146.521 54.5618 153.786 59.0447C165.623 66.3488 166.54 80.9189 166.057 83.4382C165.874 84.3996 165.288 85.2894 164.371 84.9937C165.149 91.613 165.088 95.3964 165.218 102.054L165.308 106.499C165.366 109.462 165.417 112.425 165.429 115.39C165.729 115.278 166.024 115.415 166.133 115.703C166.161 115.773 166.066 115.811 166.019 115.771C165.492 115.31 165.868 116.36 166.049 116.574C166.3 116.867 166.717 117.144 167.01 117.396L167.806 118.087V118.087L168.602 118.776C169.63 119.665 170.625 120.556 171.584 121.514L171.844 121.777C173.592 123.557 175.783 125.279 176.87 127.581C177.91 129.779 177.589 132.27 175.863 134.023C175.235 134.659 174.501 135.145 173.704 135.513C175.123 137.855 175.329 140.951 173.849 143.36C172.367 145.778 169.517 147.044 166.772 146.85C166.688 147.194 166.557 147.53 166.384 147.849C165.296 149.854 163.131 150.115 161.078 150.007L160.998 150.003C156.376 149.736 151.93 148.576 147.882 146.321C146.478 146.416 145.226 145.26 144.952 143.992C144.214 143.965 143.472 143.903 142.715 143.816C140.47 143.557 138.168 143.073 136.188 141.929C135.885 141.754 136.026 141.291 136.363 141.282C138.775 141.227 141.189 141.395 143.596 141.133C145.806 140.894 148.161 140.283 150.22 139.452C153.923 137.956 157.097 135.418 158.849 131.901C161.118 127.348 160.911 121.881 161.158 116.935C161.431 111.461 161.768 105.991 162.127 100.523L162.302 97.9013C162.651 92.7917 162.94 90.0583 163.825 84.7549C161.158 84.9937 150.079 80.9963 146.634 74.4577C140.096 88.3676 106.968 82.6749 105.499 104.089C105.486 104.271 105.199 104.22 105.189 104.047L105.162 103.559C105.148 103.318 105.136 103.08 105.128 102.845L105.121 102.61L104.601 102.616C104.601 102.681 104.508 102.705 104.485 102.635C103.994 101.238 101.653 101.688 100.635 102.02C99.7181 102.32 98.8537 102.781 98.0779 103.349C96.5199 104.491 95.3119 106.027 94.9114 107.948C94.1503 111.596 96.4672 115.312 99.5431 117.072C101.483 118.182 103.608 118.899 105.467 120.156C107.11 121.266 108.64 122.565 109.966 124.043C115.22 129.895 118.31 138.772 115.825 146.497C115.635 147.086 115.133 147.76 114.469 147.856C113.371 148.014 112.273 147.853 111.657 146.805C111.417 146.395 111.303 145.928 111.328 145.467C110.902 146.934 109.521 148.384 108.248 148.929C106.513 149.673 104.559 149.451 103.028 148.492L102.835 148.635C100.346 150.472 97.565 152.146 94.3759 151.808C92.0653 151.563 89.7968 150.383 88.5192 148.523C86.82 149.481 85.0048 150.244 83.1327 150.764L82.9335 150.818C80.3578 151.521 77.0724 152.166 74.6682 150.738C72.3597 149.367 71.5923 146.372 72.1342 143.871C72.1995 143.574 72.2817 143.284 72.3829 143.003C70.6458 143.096 68.9107 142.929 67.2621 142.418C65.5776 141.895 63.9711 140.891 63.1637 139.264C62.2529 137.423 62.4954 135.331 63.1742 133.456C64.26 130.449 66.0056 127.773 68.1791 125.442C70.2694 123.198 72.7907 121.295 75.411 119.708L75.8527 119.443C78.2115 118.033 81.0561 116.38 83.8432 116.489C83.8348 116.453 83.8285 116.419 83.8242 116.383C83.4026 113.27 83.4511 110.096 83.352 106.957C83.2613 104.07 83.158 101.183 83.0906 98.294C82.9809 93.382 83.0168 88.4493 83.6556 83.5713C84.2227 79.2429 85.2431 75.022 87.1046 71.0592C89.0589 66.8958 92.002 63.343 95.6366 60.5489C103.264 54.6839 113.339 51.6891 122.849 51.1819ZM96.9416 108.874C97.7722 107.304 99.6633 106.809 101.322 107.092C103.648 107.49 105.229 109.527 106.587 111.279C108.012 113.116 105.039 114.847 104.274 113.067L104.093 112.647C103.478 111.236 102.753 109.748 101.5 108.828C100.167 107.851 98.2866 107.707 97.1102 109.005C97.0259 109.1 96.8846 108.978 96.9416 108.874Z" fill="#231F20"/>
<path fill-rule="evenodd" clip-rule="evenodd" d="M128.915 119.159C131.223 117.769 139.848 118.788 146.623 119.159C152.003 119.454 155.845 118.87 157.075 119.698C159.854 121.569 158.504 130.616 153.716 131.853C148.928 133.09 131.179 134.818 128.118 131.853C125.058 128.888 124.776 121.653 128.915 119.159Z" fill="white"/>
<path fill-rule="evenodd" clip-rule="evenodd" d="M131.904 116.766C135.526 116.326 139.036 117.435 142.577 117.995C144.446 118.29 146.318 118.51 148.209 118.592C148.59 118.608 148.97 118.618 149.351 118.626C149.387 118.291 149.574 117.983 149.981 117.798C150.814 117.421 151.481 117.25 152.395 117.287C153.233 117.32 154.073 117.406 154.897 117.557C156.395 117.831 157.899 118.454 158.994 119.537C161.528 122.042 161.143 126.066 159.184 128.795C155.138 134.433 147.753 134.695 141.428 134.621L140.844 134.614C135.085 134.531 126.846 135.39 124.23 128.835C123.267 126.425 123.401 123.631 124.579 121.319C125.984 118.562 128.942 117.126 131.904 116.766ZM149.893 126.154L149.842 126.156C147.187 126.258 144.532 126.33 141.875 126.377C141.955 127.06 142.036 127.743 142.128 128.424C142.201 128.96 142.279 129.495 142.36 130.03C142.395 130.256 142.521 130.607 142.485 130.832L142.472 130.92V130.92C142.609 130.982 142.732 131.081 142.825 131.226C142.857 131.276 142.88 131.326 142.903 131.376C144.966 131.392 147.185 131.352 149.288 130.977L149.292 130.931V130.931C149.33 130.663 149.442 130.482 149.59 130.358C149.738 129.501 149.725 128.588 149.782 127.738C149.817 127.21 149.856 126.682 149.893 126.154ZM139.846 126.414C137.932 126.446 136.018 126.471 134.104 126.448L133.236 126.434V126.434C133.419 127.419 133.619 128.4 133.784 129.391C133.958 130.424 133.049 131.081 132.262 131.054C132.351 131.069 132.439 131.084 132.527 131.096C134.984 131.444 137.536 131.351 140.03 131.349C139.896 130.565 139.95 129.681 139.93 129.027L139.926 128.926C139.888 128.088 139.861 127.251 139.846 126.414ZM126.846 126.233C126.913 126.745 127.042 127.246 127.235 127.712C128.052 129.683 129.925 130.603 131.907 130.99C131.563 130.871 131.29 130.586 131.221 130.097C131.049 128.882 130.987 127.646 130.983 126.412C129.602 126.399 128.211 126.37 126.846 126.233ZM157.095 125.812C156.112 126.044 154.97 125.938 154.005 125.982C153.101 126.023 152.197 126.058 151.293 126.095C151.336 126.712 151.377 127.329 151.422 127.946C151.481 128.743 151.486 129.586 151.639 130.38C153.458 129.759 155.087 128.763 156.31 127.171C156.615 126.774 156.888 126.308 157.095 125.812ZM131.489 119.999C129.852 120.387 128.303 121.206 127.47 122.704C126.976 123.594 126.759 124.647 126.801 125.686C128.184 125.525 129.591 125.464 130.992 125.413C130.996 125.161 131.002 124.909 131.01 124.657L131.031 124.013C131.07 122.783 131.089 121.24 131.489 119.999ZM139.96 120.149L139.24 120.068C137.239 119.84 135.238 119.601 133.237 119.738C132.947 119.758 132.653 119.79 132.359 119.833C132.712 121.11 132.683 122.61 132.83 123.874C132.887 124.363 132.96 124.847 133.039 125.33L133.387 125.314V125.314C135.534 125.198 137.684 125.126 139.833 125.041C139.833 124.637 139.835 124.233 139.842 123.829L139.85 123.425C139.874 122.393 139.807 121.23 139.96 120.149ZM150.01 119.985C147.914 120.324 145.748 120.396 143.689 120.398C142.867 120.4 142.045 120.349 141.223 120.276C141.277 120.714 141.304 121.156 141.345 121.588C141.426 122.46 141.519 123.331 141.619 124.2L141.709 124.961V124.961C144.351 124.842 146.992 124.712 149.633 124.578L150.006 124.558V124.558L150.111 123.095C150.182 122.12 150.26 121.145 150.37 120.174L150.288 120.144V120.144C150.19 120.104 150.098 120.049 150.01 119.985ZM150.921 120.349C151.036 121.728 151.1 123.113 151.185 124.494L152.926 124.401C153.216 124.385 153.506 124.369 153.797 124.352C154.925 124.287 156.375 123.945 157.49 124.264C157.575 123.25 157.285 122.262 156.37 121.58C154.764 120.383 152.718 120.809 150.921 120.349ZM144.972 108.02C147.565 106.534 154.07 105.016 154.482 109.684C154.671 111.832 153.075 113.612 151.211 114.406L151.141 114.435C149.393 115.154 146.294 115.966 144.781 114.407C143.522 113.109 145.192 110.783 146.757 111.846C147.561 112.392 149.253 111.989 150.151 111.729L150.207 111.713C151.175 111.428 152.466 110.517 152.066 109.325C151.711 108.27 150.204 108.077 149.259 108.043C147.85 107.992 146.479 108.319 145.082 108.426C144.861 108.443 144.793 108.122 144.972 108.02ZM155.712 100.514C159.231 100.349 161.42 104.193 160.61 107.342C160.471 107.886 159.863 108.419 159.277 108.358L159.129 108.344C159.054 108.337 158.978 108.328 158.909 108.308C158.352 108.154 157.853 107.575 157.893 106.974L157.904 106.799C157.986 105.311 157.825 103.597 156.058 103.237C154.559 102.931 153.722 104.375 153.704 105.703C153.701 105.939 153.436 106.104 153.227 105.977C152.144 105.317 151.956 104.005 152.37 102.875C152.895 101.443 154.207 100.584 155.712 100.514ZM129.599 101.338C132.159 100.484 134.922 101.849 136.162 104.114C136.597 104.24 137.031 104.576 136.971 105.089C136.884 105.828 136.752 106.294 136.24 106.854C135.439 107.731 133.939 107.282 133.606 106.203L133.592 106.155C133.214 104.76 131.679 103.84 130.281 104.328C128.648 104.898 128.695 106.624 127.55 107.629C127.415 107.747 127.254 107.766 127.092 107.688C125.876 107.1 126.094 105.329 126.528 104.316C127.097 102.987 128.203 101.804 129.599 101.338ZM126.111 93.5592C128.186 91.4411 133.597 89.3914 135.017 93.3029C135.287 94.0479 134.711 95.0524 133.936 95.2069C132.666 95.4597 131.54 94.9083 130.278 95.0072C129.257 95.0877 128.192 95.429 127.376 96.0618C125.115 97.8143 124.618 100.779 123.042 103.009C122.966 103.118 122.817 103.072 122.803 102.944C122.444 99.6966 123.838 95.879 126.111 93.5592ZM153.173 91.4741C154.55 90.9875 156.11 91.0292 157.494 91.4608C158.888 91.8957 160.168 92.7217 161.155 93.8008C161.602 94.2907 162.016 94.8314 162.348 95.4069C162.525 95.7119 162.71 96.3419 162.911 96.717C163.995 97.3436 164.459 98.7713 163.488 99.787L163.444 99.8315L163.314 99.9604C162.792 100.477 162.005 100.701 161.292 100.495C159.698 100.033 159.504 98.7769 158.952 97.4432C158.587 96.5623 157.963 95.7829 157.205 95.2103C155.415 93.8577 152.48 93.4267 150.325 94.0642C150.21 94.0982 150.075 93.9519 150.157 93.8458C150.565 93.3166 150.801 92.8823 151.348 92.4554C151.903 92.0221 152.508 91.7091 153.173 91.4741Z" fill="#231F20"/>
<path fill-rule="evenodd" clip-rule="evenodd" d="M159.889 92.1487C164.848 92.1487 167.678 93.2155 168.715 93.2986L168.746 93.3008C169.177 93.3284 169.564 93.3645 169.97 93.5215C171.463 94.0967 171.706 95.6629 170.835 96.6499C170.774 98.6923 171.042 101.079 170.582 103.128C170.013 111.766 165.953 113.224 163.644 113.756C162.486 114.023 161.112 114.129 159.881 113.847C157.781 113.769 155.705 113.111 153.929 111.966C151.455 110.37 149.618 107.917 149.022 105.005C148.739 103.617 148.607 102.173 148.761 100.762L148.783 100.568C147.979 100.183 147.048 100.11 146.087 100.076C145.628 100.06 145.176 100.045 144.737 100.065C144.307 100.113 143.883 100.177 143.457 100.264C142.992 100.404 142.554 100.635 142.148 101.002L142.12 101.537C142.044 102.874 141.869 104.215 141.598 105.527C141.198 107.463 140.556 109.311 139.188 110.684C138.725 111.376 138.152 111.993 137.456 112.528C134.929 114.474 131.496 115.189 128.345 114.92C121.949 114.374 118.252 109.294 117.4 107.123L117.349 106.991C116.733 105.377 116.243 103.283 114.298 102.936L113.884 102.862C112.996 102.695 112.177 102.463 111.657 101.597C111.429 101.218 111.312 100.795 111.283 100.364C110.979 100.388 110.676 100.41 110.374 100.432C107.964 100.941 93.5071 101.374 92.3532 101.374C92.3532 101.374 90.1351 102.308 89.1986 101.584C88.5495 101.081 88.3359 100.41 88.6933 99.6505C89.2324 98.5074 91.7198 97.8198 92.8243 97.6021C92.8243 97.6021 110.648 97.7502 111.931 97.5069C112.724 96.6881 114.144 96.8002 115.33 96.6707C116.313 95.9702 117.686 95.5009 118.772 95.1869C118.993 95.103 119.212 95.022 119.425 94.9456C121.414 94.2367 123.482 93.8613 125.582 93.6597C127.747 93.4538 129.919 93.547 132.071 93.842C132.978 93.9651 133.877 94.1243 134.769 94.3324C136.366 94.5431 137.955 94.8902 139.553 95.3019L139.873 95.3851C141.556 95.8265 143.285 96.2083 145.028 95.909C146.446 95.667 147.81 95.121 149.118 94.5305L149.288 94.4532C152.163 93.1398 156.654 92.1487 159.889 92.1487ZM134.596 96.9511C133.535 96.7176 133.082 98.3541 134.146 98.5881C134.9 98.7539 135.539 99.1341 135.97 99.7783L136.016 99.8483C136.595 100.77 138.059 99.9192 137.476 98.9914C136.82 97.9472 135.8 97.2159 134.596 96.9511ZM165.67 95.9364C165.296 95.6728 164.73 95.8685 164.513 96.241C164.274 96.6511 164.431 97.1077 164.781 97.3761L164.817 97.4022C165.138 97.6288 165.451 98.0349 165.49 98.451L165.494 98.503C165.536 99.592 167.228 99.5975 167.185 98.503C167.144 97.4324 166.524 96.5379 165.67 95.9364Z" fill="#231F20"/>
</svg>